<mxfile host="Electron" agent="Mozilla/5.0 (Windows NT 10.0; Win64; x64) AppleWebKit/537.36 (KHTML, like Gecko) draw.io/24.7.17 Chrome/128.0.6613.36 Electron/32.0.1 Safari/537.36" version="24.7.17" pages="2">
  <diagram name="DFD" id="9vH-_8HUJ6dNW-6lCzEg">
    <mxGraphModel dx="3683" dy="2412" grid="1" gridSize="10" guides="1" tooltips="1" connect="1" arrows="1" fold="1" page="1" pageScale="1" pageWidth="827" pageHeight="1169" math="0" shadow="0">
      <root>
        <mxCell id="LW2s9WkSSxJKJhXJ1fTc-0" />
        <mxCell id="LW2s9WkSSxJKJhXJ1fTc-1" parent="LW2s9WkSSxJKJhXJ1fTc-0" />
        <mxCell id="jnl5u2AOaFAPthQatXR9-1" value="" style="rounded=1;whiteSpace=wrap;html=1;arcSize=3;opacity=70;fillColor=#dae8fc;strokeColor=#6c8ebf;" parent="LW2s9WkSSxJKJhXJ1fTc-1" vertex="1">
          <mxGeometry x="-1640" y="-1100" width="1580" height="550" as="geometry" />
        </mxCell>
        <mxCell id="jnl5u2AOaFAPthQatXR9-5" value="" style="rounded=1;whiteSpace=wrap;html=1;arcSize=3;opacity=70;fillColor=#dae8fc;strokeColor=#6c8ebf;" parent="LW2s9WkSSxJKJhXJ1fTc-1" vertex="1">
          <mxGeometry x="-1640" y="-109" width="1580" height="379" as="geometry" />
        </mxCell>
        <mxCell id="jnl5u2AOaFAPthQatXR9-3" value="" style="rounded=1;whiteSpace=wrap;html=1;arcSize=3;opacity=70;fillColor=#dae8fc;strokeColor=#6c8ebf;" parent="LW2s9WkSSxJKJhXJ1fTc-1" vertex="1">
          <mxGeometry x="-1640" y="-540" width="1580" height="420" as="geometry" />
        </mxCell>
        <mxCell id="Dwi_SahnaFgLUBmUXzcb-54" value="&lt;i&gt;&lt;b&gt;ШИФРОВАНИЕ&lt;/b&gt;&lt;/i&gt;" style="rounded=1;whiteSpace=wrap;html=1;glass=0;shadow=0;strokeColor=#121212;fillColor=#dae8fc;opacity=40;dashed=1;strokeWidth=1;align=center;verticalAlign=top;" parent="LW2s9WkSSxJKJhXJ1fTc-1" vertex="1">
          <mxGeometry x="-990" y="-767.14" width="184" height="112.14" as="geometry" />
        </mxCell>
        <mxCell id="eEkcM7nmRtHEnzHOvD09-2" value="&lt;i&gt;&lt;b&gt;ШИФРОВАНИЕ&lt;/b&gt;&lt;/i&gt;" style="rounded=1;whiteSpace=wrap;html=1;glass=0;shadow=0;strokeColor=#121212;fillColor=#dae8fc;opacity=40;dashed=1;strokeWidth=1;align=center;verticalAlign=top;" parent="LW2s9WkSSxJKJhXJ1fTc-1" vertex="1">
          <mxGeometry x="-990" y="-100" width="187" height="150" as="geometry" />
        </mxCell>
        <mxCell id="eEkcM7nmRtHEnzHOvD09-0" value="&lt;i&gt;&lt;b&gt;ШИФРОВАНИЕ&lt;/b&gt;&lt;/i&gt;" style="rounded=1;whiteSpace=wrap;html=1;glass=0;shadow=0;strokeColor=#121212;fillColor=#dae8fc;opacity=40;dashed=1;strokeWidth=1;align=center;verticalAlign=top;" parent="LW2s9WkSSxJKJhXJ1fTc-1" vertex="1">
          <mxGeometry x="-390" y="130" width="130" height="70" as="geometry" />
        </mxCell>
        <mxCell id="LW2s9WkSSxJKJhXJ1fTc-56" style="edgeStyle=orthogonalEdgeStyle;rounded=0;orthogonalLoop=1;jettySize=auto;html=1;exitX=0;exitY=0.5;exitDx=0;exitDy=0;entryX=1;entryY=0.75;entryDx=0;entryDy=0;" parent="LW2s9WkSSxJKJhXJ1fTc-1" source="LW2s9WkSSxJKJhXJ1fTc-59" target="LW2s9WkSSxJKJhXJ1fTc-67" edge="1">
          <mxGeometry relative="1" as="geometry">
            <Array as="points">
              <mxPoint x="-450" y="-260" />
              <mxPoint x="-450" y="-445" />
            </Array>
          </mxGeometry>
        </mxCell>
        <mxCell id="Dwi_SahnaFgLUBmUXzcb-53" value="&lt;i&gt;&lt;b&gt;ШИФРОВАНИЕ&lt;/b&gt;&lt;/i&gt;" style="rounded=1;whiteSpace=wrap;html=1;glass=0;shadow=0;strokeColor=#121212;fillColor=#dae8fc;opacity=40;dashed=1;strokeWidth=1;align=center;verticalAlign=top;" parent="LW2s9WkSSxJKJhXJ1fTc-1" vertex="1">
          <mxGeometry x="-1160" y="-510" width="160" height="50" as="geometry" />
        </mxCell>
        <mxCell id="Dwi_SahnaFgLUBmUXzcb-20" value="&lt;i&gt;&lt;b&gt;ШИФРОВАНИЕ&lt;/b&gt;&lt;/i&gt;" style="rounded=1;whiteSpace=wrap;html=1;glass=0;shadow=0;strokeColor=#121212;fillColor=#dae8fc;opacity=40;dashed=1;strokeWidth=1;align=center;verticalAlign=top;" parent="LW2s9WkSSxJKJhXJ1fTc-1" vertex="1">
          <mxGeometry x="-990" y="100" width="187" height="150" as="geometry" />
        </mxCell>
        <mxCell id="Dwi_SahnaFgLUBmUXzcb-24" value="&lt;b&gt;&lt;i&gt;МАСКИРОВАНИЕ&lt;/i&gt;&lt;/b&gt;" style="rounded=1;whiteSpace=wrap;html=1;glass=0;shadow=0;strokeColor=#ae4132;fillColor=#fad9d5;opacity=40;dashed=1;strokeWidth=1;align=center;verticalAlign=top;" parent="LW2s9WkSSxJKJhXJ1fTc-1" vertex="1">
          <mxGeometry x="-1160" y="-420" width="160" height="50" as="geometry" />
        </mxCell>
        <mxCell id="Dwi_SahnaFgLUBmUXzcb-23" value="&lt;i&gt;&lt;b&gt;ШИФРОВАНИЕ&lt;/b&gt;&lt;/i&gt;" style="rounded=1;whiteSpace=wrap;html=1;glass=0;shadow=0;strokeColor=#121212;fillColor=#dae8fc;opacity=40;dashed=1;strokeWidth=1;align=center;verticalAlign=top;" parent="LW2s9WkSSxJKJhXJ1fTc-1" vertex="1">
          <mxGeometry x="-990" y="-530" width="190" height="210" as="geometry" />
        </mxCell>
        <mxCell id="Dwi_SahnaFgLUBmUXzcb-22" value="&lt;i&gt;&lt;b&gt;ШИФРОВАНИЕ&lt;/b&gt;&lt;/i&gt;" style="rounded=1;whiteSpace=wrap;html=1;glass=0;shadow=0;strokeColor=#121212;fillColor=#dae8fc;opacity=40;dashed=1;strokeWidth=1;align=center;verticalAlign=middle;" parent="LW2s9WkSSxJKJhXJ1fTc-1" vertex="1">
          <mxGeometry x="-1474" y="-1010" width="150" height="90" as="geometry" />
        </mxCell>
        <mxCell id="Dwi_SahnaFgLUBmUXzcb-21" value="&lt;i&gt;&lt;b&gt;ШИФРОВАНИЕ&lt;/b&gt;&lt;/i&gt;" style="rounded=1;whiteSpace=wrap;html=1;glass=0;shadow=0;strokeColor=#121212;fillColor=#dae8fc;opacity=40;dashed=1;strokeWidth=1;align=center;verticalAlign=top;" parent="LW2s9WkSSxJKJhXJ1fTc-1" vertex="1">
          <mxGeometry x="-1474" y="120" width="130" height="70" as="geometry" />
        </mxCell>
        <mxCell id="Dwi_SahnaFgLUBmUXzcb-4" value="&lt;b&gt;&lt;i&gt;МАСКИРОВАНИЕ&lt;/i&gt;&lt;/b&gt;" style="rounded=1;whiteSpace=wrap;html=1;glass=0;shadow=0;strokeColor=#ae4132;fillColor=#fad9d5;opacity=40;dashed=1;strokeWidth=1;align=center;verticalAlign=top;" parent="LW2s9WkSSxJKJhXJ1fTc-1" vertex="1">
          <mxGeometry x="-752" y="-1021.1800000000001" width="162" height="70" as="geometry" />
        </mxCell>
        <mxCell id="Dwi_SahnaFgLUBmUXzcb-1" value="&lt;i&gt;&lt;b&gt;ШИФРОВАНИЕ&lt;/b&gt;&lt;/i&gt;" style="rounded=1;whiteSpace=wrap;html=1;glass=0;shadow=0;strokeColor=#121212;fillColor=#dae8fc;opacity=40;dashed=1;strokeWidth=1;align=center;verticalAlign=top;" parent="LW2s9WkSSxJKJhXJ1fTc-1" vertex="1">
          <mxGeometry x="-510" y="-1080" width="150" height="70" as="geometry" />
        </mxCell>
        <mxCell id="Dwi_SahnaFgLUBmUXzcb-0" value="&lt;i&gt;&lt;b&gt;ШИФРОВАНИЕ&lt;/b&gt;&lt;/i&gt;" style="rounded=1;whiteSpace=wrap;html=1;glass=0;shadow=0;strokeColor=#121212;fillColor=#dae8fc;opacity=40;dashed=1;strokeWidth=1;align=center;" parent="LW2s9WkSSxJKJhXJ1fTc-1" vertex="1">
          <mxGeometry x="-935" y="-880" width="380" height="70" as="geometry" />
        </mxCell>
        <mxCell id="LW2s9WkSSxJKJhXJ1fTc-47" style="edgeStyle=orthogonalEdgeStyle;rounded=0;orthogonalLoop=1;jettySize=auto;html=1;exitX=0.5;exitY=0;exitDx=0;exitDy=0;entryX=0;entryY=0.25;entryDx=0;entryDy=0;flowAnimation=0;" parent="LW2s9WkSSxJKJhXJ1fTc-1" source="LW2s9WkSSxJKJhXJ1fTc-51" target="LW2s9WkSSxJKJhXJ1fTc-53" edge="1">
          <mxGeometry relative="1" as="geometry" />
        </mxCell>
        <mxCell id="LW2s9WkSSxJKJhXJ1fTc-48" value="Регистрационная форма" style="edgeLabel;html=1;align=center;verticalAlign=middle;resizable=0;points=[];" parent="LW2s9WkSSxJKJhXJ1fTc-47" vertex="1" connectable="0">
          <mxGeometry x="0.4301" y="-1" relative="1" as="geometry">
            <mxPoint x="118" y="-16" as="offset" />
          </mxGeometry>
        </mxCell>
        <mxCell id="LW2s9WkSSxJKJhXJ1fTc-49" style="edgeStyle=orthogonalEdgeStyle;rounded=0;orthogonalLoop=1;jettySize=auto;html=1;exitX=0.5;exitY=0;exitDx=0;exitDy=0;entryX=0;entryY=0.75;entryDx=0;entryDy=0;" parent="LW2s9WkSSxJKJhXJ1fTc-1" source="LW2s9WkSSxJKJhXJ1fTc-51" target="LW2s9WkSSxJKJhXJ1fTc-53" edge="1">
          <mxGeometry relative="1" as="geometry" />
        </mxCell>
        <mxCell id="LW2s9WkSSxJKJhXJ1fTc-50" value="Файлы пациента" style="edgeLabel;html=1;align=center;verticalAlign=middle;resizable=0;points=[];" parent="LW2s9WkSSxJKJhXJ1fTc-49" vertex="1" connectable="0">
          <mxGeometry x="0.1422" y="2" relative="1" as="geometry">
            <mxPoint x="123" y="-124" as="offset" />
          </mxGeometry>
        </mxCell>
        <mxCell id="LW2s9WkSSxJKJhXJ1fTc-51" value="&lt;b&gt;CUSTOMER&lt;/b&gt;" style="html=1;dashed=0;whiteSpace=wrap;rounded=1;fillColor=#f5f5f5;fontColor=#333333;strokeColor=#666666;strokeWidth=2;" parent="LW2s9WkSSxJKJhXJ1fTc-1" vertex="1">
          <mxGeometry x="-1600" y="-280" width="160" height="40" as="geometry" />
        </mxCell>
        <mxCell id="LW2s9WkSSxJKJhXJ1fTc-52" value="1.0" style="swimlane;fontStyle=1;childLayout=stackLayout;horizontal=1;startSize=40;fillColor=#BECADB;horizontalStack=0;resizeParent=1;resizeParentMax=0;resizeLast=0;collapsible=0;marginBottom=0;swimlaneFillColor=#8FBDFF;rounded=1;strokeColor=#FFFFFF;strokeWidth=2;" parent="LW2s9WkSSxJKJhXJ1fTc-1" vertex="1">
          <mxGeometry x="-1257.57" y="-1040" width="170" height="100" as="geometry" />
        </mxCell>
        <mxCell id="LW2s9WkSSxJKJhXJ1fTc-53" value="&lt;b&gt;Заказ медицинской услуги&lt;/b&gt;" style="rounded=0;whiteSpace=wrap;html=1;strokeColor=#6c8ebf;opacity=0;fillColor=#dae8fc;" parent="LW2s9WkSSxJKJhXJ1fTc-52" vertex="1">
          <mxGeometry y="40" width="170" height="60" as="geometry" />
        </mxCell>
        <mxCell id="LW2s9WkSSxJKJhXJ1fTc-54" style="edgeStyle=orthogonalEdgeStyle;rounded=0;orthogonalLoop=1;jettySize=auto;html=1;exitX=0;exitY=0.5;exitDx=0;exitDy=0;entryX=1;entryY=0.25;entryDx=0;entryDy=0;" parent="LW2s9WkSSxJKJhXJ1fTc-1" source="LW2s9WkSSxJKJhXJ1fTc-59" target="LW2s9WkSSxJKJhXJ1fTc-67" edge="1">
          <mxGeometry relative="1" as="geometry">
            <Array as="points">
              <mxPoint x="-450" y="-260" />
              <mxPoint x="-450" y="-475" />
            </Array>
          </mxGeometry>
        </mxCell>
        <mxCell id="LW2s9WkSSxJKJhXJ1fTc-58" style="edgeStyle=orthogonalEdgeStyle;rounded=0;orthogonalLoop=1;jettySize=auto;html=1;exitX=0;exitY=0.5;exitDx=0;exitDy=0;entryX=0.5;entryY=0;entryDx=0;entryDy=0;" parent="LW2s9WkSSxJKJhXJ1fTc-1" source="LW2s9WkSSxJKJhXJ1fTc-59" target="LW2s9WkSSxJKJhXJ1fTc-80" edge="1">
          <mxGeometry relative="1" as="geometry" />
        </mxCell>
        <mxCell id="LW2s9WkSSxJKJhXJ1fTc-59" value="&lt;b&gt;ADMINISTRATOR&lt;/b&gt;" style="html=1;dashed=0;whiteSpace=wrap;rounded=1;fillColor=#ffcc99;strokeColor=#36393d;strokeWidth=2;" parent="LW2s9WkSSxJKJhXJ1fTc-1" vertex="1">
          <mxGeometry x="-420" y="-280" width="160" height="40" as="geometry" />
        </mxCell>
        <mxCell id="LW2s9WkSSxJKJhXJ1fTc-62" value="" style="group" parent="LW2s9WkSSxJKJhXJ1fTc-1" vertex="1" connectable="0">
          <mxGeometry x="-976" y="-990" width="160" height="40" as="geometry" />
        </mxCell>
        <object label="Filled-out reg form" placeholders="1" id="LW2s9WkSSxJKJhXJ1fTc-63">
          <mxCell style="html=1;dashed=0;whiteSpace=wrap;shape=mxgraph.dfd.dataStoreID;align=center;spacingLeft=3;points=[[0,0],[0.5,0],[1,0],[0,0.5],[1,0.5],[0,1],[0.5,1],[1,1]];rounded=3;strokeColor=#36393d;verticalAlign=middle;fontFamily=Helvetica;fontSize=12;fillColor=#eeeeee;strokeWidth=2;" parent="LW2s9WkSSxJKJhXJ1fTc-62" vertex="1">
            <mxGeometry width="160" height="40" as="geometry" />
          </mxCell>
        </object>
        <mxCell id="LW2s9WkSSxJKJhXJ1fTc-64" value="&lt;b&gt;T&lt;/b&gt;" style="rounded=0;whiteSpace=wrap;html=1;fillColor=none;" parent="LW2s9WkSSxJKJhXJ1fTc-62" vertex="1">
          <mxGeometry width="30" height="40" as="geometry" />
        </mxCell>
        <mxCell id="LW2s9WkSSxJKJhXJ1fTc-65" style="edgeStyle=orthogonalEdgeStyle;rounded=0;orthogonalLoop=1;jettySize=auto;html=1;exitX=0;exitY=0.5;exitDx=0;exitDy=0;entryX=1;entryY=0.5;entryDx=0;entryDy=0;" parent="LW2s9WkSSxJKJhXJ1fTc-1" source="LW2s9WkSSxJKJhXJ1fTc-67" target="LW2s9WkSSxJKJhXJ1fTc-98" edge="1">
          <mxGeometry relative="1" as="geometry" />
        </mxCell>
        <mxCell id="LW2s9WkSSxJKJhXJ1fTc-66" value="2.0" style="swimlane;fontStyle=1;childLayout=stackLayout;horizontal=1;startSize=40;fillColor=#BECADB;horizontalStack=0;resizeParent=1;resizeParentMax=0;resizeLast=0;collapsible=0;marginBottom=0;swimlaneFillColor=#8FBDFF;rounded=1;strokeColor=#FFFFFF;strokeWidth=2;" parent="LW2s9WkSSxJKJhXJ1fTc-1" vertex="1">
          <mxGeometry x="-690" y="-530" width="170" height="100" as="geometry" />
        </mxCell>
        <mxCell id="LW2s9WkSSxJKJhXJ1fTc-67" value="&lt;span style=&quot;font-size: 11px; text-wrap: nowrap;&quot;&gt;&lt;b&gt;Регистрация&amp;nbsp;&lt;/b&gt;&lt;/span&gt;&lt;b style=&quot;font-size: 11px; text-wrap: nowrap; background-color: initial;&quot;&gt;пациента&lt;/b&gt;&lt;div&gt;&lt;b style=&quot;font-size: 11px; text-wrap: nowrap; background-color: initial;&quot;&gt;в системе&lt;/b&gt;&lt;/div&gt;" style="rounded=0;whiteSpace=wrap;html=1;strokeColor=#6c8ebf;opacity=0;fillColor=#dae8fc;align=center;verticalAlign=middle;fontFamily=Helvetica;fontSize=12;fontColor=default;" parent="LW2s9WkSSxJKJhXJ1fTc-66" vertex="1">
          <mxGeometry y="40" width="170" height="60" as="geometry" />
        </mxCell>
        <mxCell id="LW2s9WkSSxJKJhXJ1fTc-68" style="edgeStyle=orthogonalEdgeStyle;rounded=0;orthogonalLoop=1;jettySize=auto;html=1;exitX=1;exitY=0.5;exitDx=0;exitDy=0;entryX=1;entryY=0.5;entryDx=0;entryDy=0;" parent="LW2s9WkSSxJKJhXJ1fTc-1" source="LW2s9WkSSxJKJhXJ1fTc-63" target="LW2s9WkSSxJKJhXJ1fTc-59" edge="1">
          <mxGeometry relative="1" as="geometry">
            <Array as="points">
              <mxPoint x="-210" y="-970" />
              <mxPoint x="-210" y="-260" />
            </Array>
          </mxGeometry>
        </mxCell>
        <mxCell id="LW2s9WkSSxJKJhXJ1fTc-69" style="edgeStyle=orthogonalEdgeStyle;rounded=0;orthogonalLoop=1;jettySize=auto;html=1;exitX=0;exitY=0.5;exitDx=0;exitDy=0;entryX=1;entryY=0.5;entryDx=0;entryDy=0;" parent="LW2s9WkSSxJKJhXJ1fTc-1" source="Dwi_SahnaFgLUBmUXzcb-36" target="LW2s9WkSSxJKJhXJ1fTc-95" edge="1">
          <mxGeometry relative="1" as="geometry" />
        </mxCell>
        <mxCell id="LW2s9WkSSxJKJhXJ1fTc-80" value="2.1" style="swimlane;fontStyle=1;childLayout=stackLayout;horizontal=1;startSize=40;fillColor=#BECADB;horizontalStack=0;resizeParent=1;resizeParentMax=0;resizeLast=0;collapsible=0;marginBottom=0;swimlaneFillColor=#8FBDFF;rounded=1;strokeColor=#FFFFFF;strokeWidth=2;" parent="LW2s9WkSSxJKJhXJ1fTc-1" vertex="1">
          <mxGeometry x="-1257.57" y="-236" width="170" height="100" as="geometry" />
        </mxCell>
        <mxCell id="LW2s9WkSSxJKJhXJ1fTc-81" value="&lt;span style=&quot;font-size: 11px; text-wrap: nowrap;&quot;&gt;&lt;b&gt;Запись пациента&lt;/b&gt;&lt;/span&gt;&lt;div&gt;&lt;span style=&quot;font-size: 11px; text-wrap: nowrap;&quot;&gt;&lt;b&gt;к специалисту&lt;/b&gt;&lt;/span&gt;&lt;/div&gt;" style="rounded=0;whiteSpace=wrap;html=1;strokeColor=#6c8ebf;opacity=0;fillColor=#dae8fc;align=center;verticalAlign=middle;fontFamily=Helvetica;fontSize=12;fontColor=default;" parent="LW2s9WkSSxJKJhXJ1fTc-80" vertex="1">
          <mxGeometry y="40" width="170" height="60" as="geometry" />
        </mxCell>
        <mxCell id="LW2s9WkSSxJKJhXJ1fTc-82" style="edgeStyle=orthogonalEdgeStyle;rounded=0;orthogonalLoop=1;jettySize=auto;html=1;exitX=0;exitY=0.5;exitDx=0;exitDy=0;entryX=0.5;entryY=0;entryDx=0;entryDy=0;" parent="LW2s9WkSSxJKJhXJ1fTc-1" source="LW2s9WkSSxJKJhXJ1fTc-96" target="LW2s9WkSSxJKJhXJ1fTc-80" edge="1">
          <mxGeometry relative="1" as="geometry" />
        </mxCell>
        <mxCell id="LW2s9WkSSxJKJhXJ1fTc-83" value="&lt;span style=&quot;&quot;&gt;Учетные данные&amp;nbsp;&lt;/span&gt;&lt;span style=&quot;&quot;&gt;пациента&lt;/span&gt;" style="edgeLabel;html=1;align=center;verticalAlign=middle;resizable=0;points=[];labelBackgroundColor=none;" parent="LW2s9WkSSxJKJhXJ1fTc-82" vertex="1" connectable="0">
          <mxGeometry x="-0.469" y="-2" relative="1" as="geometry">
            <mxPoint x="9" y="74" as="offset" />
          </mxGeometry>
        </mxCell>
        <mxCell id="LW2s9WkSSxJKJhXJ1fTc-94" value="" style="group" parent="LW2s9WkSSxJKJhXJ1fTc-1" vertex="1" connectable="0">
          <mxGeometry x="-976" y="-480" width="160" height="40" as="geometry" />
        </mxCell>
        <object label="Patiens log (xlsx)" placeholders="1" id="LW2s9WkSSxJKJhXJ1fTc-95">
          <mxCell style="html=1;dashed=0;whiteSpace=wrap;shape=mxgraph.dfd.dataStoreID;align=center;spacingLeft=3;points=[[0,0],[0.5,0],[1,0],[0,0.5],[1,0.5],[0,1],[0.5,1],[1,1]];rounded=3;strokeColor=#36393d;verticalAlign=middle;fontFamily=Helvetica;fontSize=12;fillColor=#eeeeee;strokeWidth=2;" parent="LW2s9WkSSxJKJhXJ1fTc-94" vertex="1">
            <mxGeometry width="160" height="40" as="geometry" />
          </mxCell>
        </object>
        <mxCell id="LW2s9WkSSxJKJhXJ1fTc-96" value="&lt;b&gt;D&lt;/b&gt;" style="rounded=0;whiteSpace=wrap;html=1;fillColor=none;" parent="LW2s9WkSSxJKJhXJ1fTc-94" vertex="1">
          <mxGeometry width="30" height="40" as="geometry" />
        </mxCell>
        <mxCell id="LW2s9WkSSxJKJhXJ1fTc-97" value="" style="group" parent="LW2s9WkSSxJKJhXJ1fTc-1" vertex="1" connectable="0">
          <mxGeometry x="-976" y="-380" width="160" height="40" as="geometry" />
        </mxCell>
        <object label="Patiens files (any)" placeholders="1" id="LW2s9WkSSxJKJhXJ1fTc-98">
          <mxCell style="html=1;dashed=0;whiteSpace=wrap;shape=mxgraph.dfd.dataStoreID;align=center;spacingLeft=3;points=[[0,0],[0.5,0],[1,0],[0,0.5],[1,0.5],[0,1],[0.5,1],[1,1]];rounded=3;strokeColor=#36393d;verticalAlign=middle;fontFamily=Helvetica;fontSize=12;fillColor=#eeeeee;strokeWidth=2;" parent="LW2s9WkSSxJKJhXJ1fTc-97" vertex="1">
            <mxGeometry width="160" height="40" as="geometry" />
          </mxCell>
        </object>
        <mxCell id="LW2s9WkSSxJKJhXJ1fTc-99" value="&lt;b&gt;D&lt;/b&gt;" style="rounded=0;whiteSpace=wrap;html=1;fillColor=none;" parent="LW2s9WkSSxJKJhXJ1fTc-97" vertex="1">
          <mxGeometry width="30" height="40" as="geometry" />
        </mxCell>
        <mxCell id="LW2s9WkSSxJKJhXJ1fTc-100" value="" style="group" parent="LW2s9WkSSxJKJhXJ1fTc-1" vertex="1" connectable="0">
          <mxGeometry x="-976" y="-1050" width="160" height="40" as="geometry" />
        </mxCell>
        <object label="Files" placeholders="1" id="LW2s9WkSSxJKJhXJ1fTc-101">
          <mxCell style="html=1;dashed=0;whiteSpace=wrap;shape=mxgraph.dfd.dataStoreID;align=center;spacingLeft=3;points=[[0,0],[0.5,0],[1,0],[0,0.5],[1,0.5],[0,1],[0.5,1],[1,1]];rounded=3;strokeColor=#36393d;verticalAlign=middle;fontFamily=Helvetica;fontSize=12;fillColor=#eeeeee;strokeWidth=2;" parent="LW2s9WkSSxJKJhXJ1fTc-100" vertex="1">
            <mxGeometry width="160" height="40" as="geometry" />
          </mxCell>
        </object>
        <mxCell id="LW2s9WkSSxJKJhXJ1fTc-102" value="&lt;b&gt;T&lt;/b&gt;" style="rounded=0;whiteSpace=wrap;html=1;fillColor=none;" parent="LW2s9WkSSxJKJhXJ1fTc-100" vertex="1">
          <mxGeometry width="30" height="40" as="geometry" />
        </mxCell>
        <mxCell id="LW2s9WkSSxJKJhXJ1fTc-103" style="edgeStyle=orthogonalEdgeStyle;rounded=0;orthogonalLoop=1;jettySize=auto;html=1;exitX=1;exitY=0.5;exitDx=0;exitDy=0;entryX=1;entryY=0.5;entryDx=0;entryDy=0;" parent="LW2s9WkSSxJKJhXJ1fTc-1" source="LW2s9WkSSxJKJhXJ1fTc-101" target="LW2s9WkSSxJKJhXJ1fTc-59" edge="1">
          <mxGeometry relative="1" as="geometry">
            <Array as="points">
              <mxPoint x="-210" y="-1030" />
              <mxPoint x="-210" y="-260" />
            </Array>
          </mxGeometry>
        </mxCell>
        <mxCell id="LW2s9WkSSxJKJhXJ1fTc-104" value="Файлы пациента" style="edgeLabel;html=1;align=center;verticalAlign=middle;resizable=0;points=[];" parent="LW2s9WkSSxJKJhXJ1fTc-103" vertex="1" connectable="0">
          <mxGeometry x="-0.465" relative="1" as="geometry">
            <mxPoint x="-2" y="-10" as="offset" />
          </mxGeometry>
        </mxCell>
        <mxCell id="LW2s9WkSSxJKJhXJ1fTc-105" style="edgeStyle=orthogonalEdgeStyle;rounded=0;orthogonalLoop=1;jettySize=auto;html=1;exitX=1;exitY=0.5;exitDx=0;exitDy=0;entryX=0;entryY=0.5;entryDx=0;entryDy=0;" parent="LW2s9WkSSxJKJhXJ1fTc-1" source="LW2s9WkSSxJKJhXJ1fTc-53" target="LW2s9WkSSxJKJhXJ1fTc-102" edge="1">
          <mxGeometry relative="1" as="geometry" />
        </mxCell>
        <mxCell id="LW2s9WkSSxJKJhXJ1fTc-106" style="edgeStyle=orthogonalEdgeStyle;rounded=0;orthogonalLoop=1;jettySize=auto;html=1;exitX=0;exitY=0.5;exitDx=0;exitDy=0;entryX=0.5;entryY=0;entryDx=0;entryDy=0;" parent="LW2s9WkSSxJKJhXJ1fTc-1" source="LW2s9WkSSxJKJhXJ1fTc-99" target="LW2s9WkSSxJKJhXJ1fTc-80" edge="1">
          <mxGeometry relative="1" as="geometry" />
        </mxCell>
        <mxCell id="LW2s9WkSSxJKJhXJ1fTc-107" value="Файлы пациента" style="edgeLabel;html=1;align=center;verticalAlign=middle;resizable=0;points=[];" parent="LW2s9WkSSxJKJhXJ1fTc-106" vertex="1" connectable="0">
          <mxGeometry x="-0.5775" y="3" relative="1" as="geometry">
            <mxPoint x="-35" y="-123" as="offset" />
          </mxGeometry>
        </mxCell>
        <mxCell id="LW2s9WkSSxJKJhXJ1fTc-108" value="" style="group" parent="LW2s9WkSSxJKJhXJ1fTc-1" vertex="1" connectable="0">
          <mxGeometry x="-976" y="-45" width="160" height="40" as="geometry" />
        </mxCell>
        <object label="Appointment-log" placeholders="1" id="LW2s9WkSSxJKJhXJ1fTc-109">
          <mxCell style="html=1;dashed=0;whiteSpace=wrap;shape=mxgraph.dfd.dataStoreID;align=center;spacingLeft=3;points=[[0,0],[0.5,0],[1,0],[0,0.5],[1,0.5],[0,1],[0.5,1],[1,1]];rounded=3;strokeColor=#36393d;verticalAlign=middle;fontFamily=Helvetica;fontSize=12;fillColor=#eeeeee;strokeWidth=2;" parent="LW2s9WkSSxJKJhXJ1fTc-108" vertex="1">
            <mxGeometry width="160" height="40" as="geometry" />
          </mxCell>
        </object>
        <mxCell id="LW2s9WkSSxJKJhXJ1fTc-110" value="&lt;b&gt;D&lt;/b&gt;" style="rounded=0;whiteSpace=wrap;html=1;fillColor=none;" parent="LW2s9WkSSxJKJhXJ1fTc-108" vertex="1">
          <mxGeometry width="30" height="40" as="geometry" />
        </mxCell>
        <mxCell id="LW2s9WkSSxJKJhXJ1fTc-111" style="edgeStyle=orthogonalEdgeStyle;rounded=0;orthogonalLoop=1;jettySize=auto;html=1;exitX=1;exitY=0.5;exitDx=0;exitDy=0;entryX=0;entryY=0.5;entryDx=0;entryDy=0;" parent="LW2s9WkSSxJKJhXJ1fTc-1" source="Dwi_SahnaFgLUBmUXzcb-46" target="LW2s9WkSSxJKJhXJ1fTc-110" edge="1">
          <mxGeometry relative="1" as="geometry">
            <mxPoint x="-1000" y="5" as="targetPoint" />
          </mxGeometry>
        </mxCell>
        <mxCell id="LW2s9WkSSxJKJhXJ1fTc-112" value="appointment_log" style="swimlane;fontStyle=0;childLayout=stackLayout;horizontal=1;startSize=20;horizontalStack=0;resizeParent=1;resizeParentMax=0;resizeLast=0;collapsible=1;marginBottom=0;whiteSpace=wrap;html=1;fontSize=9;" parent="LW2s9WkSSxJKJhXJ1fTc-1" vertex="1" collapsed="1">
          <mxGeometry x="-946" y="-5" width="130" height="20" as="geometry">
            <mxRectangle x="-836" y="35" width="130" height="80" as="alternateBounds" />
          </mxGeometry>
        </mxCell>
        <mxCell id="LW2s9WkSSxJKJhXJ1fTc-113" value="patient_id / tag &lt;b&gt;&lt;i&gt;hidden&lt;/i&gt;&lt;/b&gt;" style="text;strokeColor=#666666;fillColor=#f5f5f5;align=left;verticalAlign=middle;spacingLeft=4;spacingRight=4;overflow=hidden;points=[[0,0.5],[1,0.5]];portConstraint=eastwest;rotatable=0;whiteSpace=wrap;html=1;fontSize=10;fontColor=#333333;" parent="LW2s9WkSSxJKJhXJ1fTc-112" vertex="1">
          <mxGeometry y="20" width="130" height="20" as="geometry" />
        </mxCell>
        <mxCell id="LW2s9WkSSxJKJhXJ1fTc-114" value="doc_id&amp;nbsp;/ tag&amp;nbsp;&lt;b&gt;&lt;i&gt;hidden&lt;/i&gt;&lt;/b&gt;" style="text;strokeColor=#666666;fillColor=#f5f5f5;align=left;verticalAlign=middle;spacingLeft=4;spacingRight=4;overflow=hidden;points=[[0,0.5],[1,0.5]];portConstraint=eastwest;rotatable=0;whiteSpace=wrap;html=1;fontSize=10;fontColor=#333333;" parent="LW2s9WkSSxJKJhXJ1fTc-112" vertex="1">
          <mxGeometry y="40" width="130" height="20" as="geometry" />
        </mxCell>
        <mxCell id="LW2s9WkSSxJKJhXJ1fTc-115" value="datetime" style="text;strokeColor=#666666;fillColor=#f5f5f5;align=left;verticalAlign=middle;spacingLeft=4;spacingRight=4;overflow=hidden;points=[[0,0.5],[1,0.5]];portConstraint=eastwest;rotatable=0;whiteSpace=wrap;html=1;fontSize=10;fontColor=#333333;" parent="LW2s9WkSSxJKJhXJ1fTc-112" vertex="1">
          <mxGeometry y="60" width="130" height="20" as="geometry" />
        </mxCell>
        <mxCell id="LW2s9WkSSxJKJhXJ1fTc-116" value="3.0" style="swimlane;fontStyle=1;childLayout=stackLayout;horizontal=1;startSize=40;fillColor=#BECADB;horizontalStack=0;resizeParent=1;resizeParentMax=0;resizeLast=0;collapsible=0;marginBottom=0;swimlaneFillColor=#8FBDFF;rounded=1;strokeColor=#FFFFFF;strokeWidth=2;" parent="LW2s9WkSSxJKJhXJ1fTc-1" vertex="1">
          <mxGeometry x="-690" y="-75" width="170" height="100" as="geometry" />
        </mxCell>
        <mxCell id="LW2s9WkSSxJKJhXJ1fTc-117" value="&lt;span style=&quot;text-wrap: nowrap;&quot;&gt;&lt;b style=&quot;&quot;&gt;&lt;font style=&quot;font-size: 12px;&quot;&gt;Прием пациента&lt;/font&gt;&lt;/b&gt;&lt;/span&gt;" style="rounded=0;whiteSpace=wrap;html=1;strokeColor=#6c8ebf;opacity=0;fillColor=#dae8fc;align=center;verticalAlign=middle;fontFamily=Helvetica;fontSize=12;fontColor=default;" parent="LW2s9WkSSxJKJhXJ1fTc-116" vertex="1">
          <mxGeometry y="40" width="170" height="60" as="geometry" />
        </mxCell>
        <mxCell id="LW2s9WkSSxJKJhXJ1fTc-118" style="edgeStyle=orthogonalEdgeStyle;rounded=0;orthogonalLoop=1;jettySize=auto;html=1;exitX=1;exitY=0.5;exitDx=0;exitDy=0;entryX=0;entryY=0.5;entryDx=0;entryDy=0;" parent="LW2s9WkSSxJKJhXJ1fTc-1" source="LW2s9WkSSxJKJhXJ1fTc-109" target="LW2s9WkSSxJKJhXJ1fTc-116" edge="1">
          <mxGeometry relative="1" as="geometry" />
        </mxCell>
        <mxCell id="LW2s9WkSSxJKJhXJ1fTc-119" value="Данные записи&amp;nbsp;&lt;div&gt;&lt;span style=&quot;background-color: initial;&quot;&gt;пациента&lt;/span&gt;&lt;/div&gt;" style="edgeLabel;html=1;align=center;verticalAlign=middle;resizable=0;points=[];labelBackgroundColor=none;" parent="LW2s9WkSSxJKJhXJ1fTc-118" vertex="1" connectable="0">
          <mxGeometry x="0.1624" y="-2" relative="1" as="geometry">
            <mxPoint x="-2" y="-2" as="offset" />
          </mxGeometry>
        </mxCell>
        <mxCell id="LW2s9WkSSxJKJhXJ1fTc-120" style="edgeStyle=orthogonalEdgeStyle;rounded=0;orthogonalLoop=1;jettySize=auto;html=1;exitX=1;exitY=0.5;exitDx=0;exitDy=0;entryX=1;entryY=0.25;entryDx=0;entryDy=0;" parent="LW2s9WkSSxJKJhXJ1fTc-1" source="LW2s9WkSSxJKJhXJ1fTc-122" target="Dwi_SahnaFgLUBmUXzcb-49" edge="1">
          <mxGeometry relative="1" as="geometry">
            <mxPoint x="-250" y="220" as="targetPoint" />
            <Array as="points">
              <mxPoint x="-210" y="-20" />
              <mxPoint x="-210" y="170" />
            </Array>
          </mxGeometry>
        </mxCell>
        <mxCell id="LW2s9WkSSxJKJhXJ1fTc-121" value="Данные приема&lt;div&gt;пациента&lt;/div&gt;" style="edgeLabel;html=1;align=center;verticalAlign=middle;resizable=0;points=[];labelBackgroundColor=none;" parent="LW2s9WkSSxJKJhXJ1fTc-120" vertex="1" connectable="0">
          <mxGeometry x="0.2812" y="-2" relative="1" as="geometry">
            <mxPoint as="offset" />
          </mxGeometry>
        </mxCell>
        <mxCell id="LW2s9WkSSxJKJhXJ1fTc-122" value="&lt;b&gt;DOCTOR&lt;/b&gt;" style="html=1;dashed=0;whiteSpace=wrap;rounded=1;fillColor=#ffcc99;strokeColor=#36393d;strokeWidth=2;" parent="LW2s9WkSSxJKJhXJ1fTc-1" vertex="1">
          <mxGeometry x="-420" y="-40" width="160" height="40" as="geometry" />
        </mxCell>
        <mxCell id="LW2s9WkSSxJKJhXJ1fTc-123" style="edgeStyle=orthogonalEdgeStyle;rounded=0;orthogonalLoop=1;jettySize=auto;html=1;exitX=1;exitY=0.25;exitDx=0;exitDy=0;entryX=0;entryY=0.5;entryDx=0;entryDy=0;" parent="LW2s9WkSSxJKJhXJ1fTc-1" source="LW2s9WkSSxJKJhXJ1fTc-117" target="LW2s9WkSSxJKJhXJ1fTc-122" edge="1">
          <mxGeometry relative="1" as="geometry" />
        </mxCell>
        <object label="App-log-data" placeholders="1" id="LW2s9WkSSxJKJhXJ1fTc-124">
          <mxCell style="html=1;dashed=0;whiteSpace=wrap;shape=mxgraph.dfd.dataStoreID;align=center;spacingLeft=3;points=[[0,0],[0.5,0],[1,0],[0,0.5],[1,0.5],[0,1],[0.5,1],[1,1]];rounded=3;strokeColor=#36393d;verticalAlign=middle;fontFamily=Helvetica;fontSize=12;fillColor=#eeeeee;strokeWidth=2;" parent="LW2s9WkSSxJKJhXJ1fTc-1" vertex="1">
            <mxGeometry x="-976" y="150" width="160" height="40" as="geometry" />
          </mxCell>
        </object>
        <mxCell id="qxSdvj8VyCYYRxK1N-Ad-2" style="edgeStyle=orthogonalEdgeStyle;rounded=0;orthogonalLoop=1;jettySize=auto;html=1;exitX=0;exitY=0.5;exitDx=0;exitDy=0;entryX=1;entryY=0.25;entryDx=0;entryDy=0;" parent="LW2s9WkSSxJKJhXJ1fTc-1" source="LW2s9WkSSxJKJhXJ1fTc-125" target="qxSdvj8VyCYYRxK1N-Ad-1" edge="1">
          <mxGeometry relative="1" as="geometry" />
        </mxCell>
        <mxCell id="LW2s9WkSSxJKJhXJ1fTc-125" value="&lt;b&gt;D&lt;/b&gt;" style="rounded=0;whiteSpace=wrap;html=1;fillColor=none;" parent="LW2s9WkSSxJKJhXJ1fTc-1" vertex="1">
          <mxGeometry x="-976" y="150" width="30" height="40" as="geometry" />
        </mxCell>
        <mxCell id="LW2s9WkSSxJKJhXJ1fTc-126" style="edgeStyle=orthogonalEdgeStyle;rounded=0;orthogonalLoop=1;jettySize=auto;html=1;exitX=0;exitY=0.5;exitDx=0;exitDy=0;entryX=1;entryY=0.25;entryDx=0;entryDy=0;" parent="LW2s9WkSSxJKJhXJ1fTc-1" source="LW2s9WkSSxJKJhXJ1fTc-127" target="LW2s9WkSSxJKJhXJ1fTc-147" edge="1">
          <mxGeometry relative="1" as="geometry" />
        </mxCell>
        <mxCell id="LW2s9WkSSxJKJhXJ1fTc-127" value="&lt;b&gt;CASHIER&lt;/b&gt;" style="html=1;dashed=0;whiteSpace=wrap;rounded=1;fillColor=#ffcc99;strokeColor=#36393d;strokeWidth=2;" parent="LW2s9WkSSxJKJhXJ1fTc-1" vertex="1">
          <mxGeometry x="-420" y="-734" width="160" height="40" as="geometry" />
        </mxCell>
        <mxCell id="LW2s9WkSSxJKJhXJ1fTc-128" style="edgeStyle=orthogonalEdgeStyle;rounded=0;orthogonalLoop=1;jettySize=auto;html=1;exitX=0.5;exitY=0;exitDx=0;exitDy=0;entryX=0.5;entryY=0;entryDx=0;entryDy=0;fillColor=#f5f5f5;strokeColor=#666666;" parent="LW2s9WkSSxJKJhXJ1fTc-1" source="LW2s9WkSSxJKJhXJ1fTc-51" target="LW2s9WkSSxJKJhXJ1fTc-127" edge="1">
          <mxGeometry relative="1" as="geometry">
            <mxPoint x="-1087.5699999999997" y="-634" as="sourcePoint" />
            <Array as="points">
              <mxPoint x="-1520" y="-860" />
              <mxPoint x="-340" y="-860" />
            </Array>
          </mxGeometry>
        </mxCell>
        <mxCell id="LW2s9WkSSxJKJhXJ1fTc-129" value="&lt;font style=&quot;font-size: 12px;&quot;&gt;Данные платежа пациента&lt;/font&gt;" style="edgeLabel;html=1;align=center;verticalAlign=middle;resizable=0;points=[];" parent="LW2s9WkSSxJKJhXJ1fTc-128" vertex="1" connectable="0">
          <mxGeometry x="-0.0129" y="1" relative="1" as="geometry">
            <mxPoint x="529" as="offset" />
          </mxGeometry>
        </mxCell>
        <mxCell id="LW2s9WkSSxJKJhXJ1fTc-133" value="payment_info" style="swimlane;fontStyle=0;childLayout=stackLayout;horizontal=1;startSize=20;horizontalStack=0;resizeParent=1;resizeParentMax=0;resizeLast=0;collapsible=1;marginBottom=0;whiteSpace=wrap;html=1;fontSize=9;" parent="LW2s9WkSSxJKJhXJ1fTc-1" vertex="1" collapsed="1">
          <mxGeometry x="-946.67" y="-692.14" width="126.67" height="20" as="geometry">
            <mxRectangle x="-836.67" y="-712.14" width="130" height="120" as="alternateBounds" />
          </mxGeometry>
        </mxCell>
        <mxCell id="LW2s9WkSSxJKJhXJ1fTc-134" value="customer_id /&amp;nbsp;tag&amp;nbsp;&lt;i&gt;&lt;b&gt;conf&lt;/b&gt;&lt;/i&gt;" style="text;strokeColor=#666666;fillColor=#f5f5f5;align=left;verticalAlign=middle;spacingLeft=4;spacingRight=4;overflow=hidden;points=[[0,0.5],[1,0.5]];portConstraint=eastwest;rotatable=0;whiteSpace=wrap;html=1;fontSize=10;fontColor=#333333;" parent="LW2s9WkSSxJKJhXJ1fTc-133" vertex="1">
          <mxGeometry y="20" width="130" height="20" as="geometry" />
        </mxCell>
        <mxCell id="LW2s9WkSSxJKJhXJ1fTc-135" value="service_id&amp;nbsp;/&amp;nbsp;tag&amp;nbsp;&lt;i&gt;&lt;b&gt;conf&lt;/b&gt;&lt;/i&gt;" style="text;strokeColor=#666666;fillColor=#f5f5f5;align=left;verticalAlign=middle;spacingLeft=4;spacingRight=4;overflow=hidden;points=[[0,0.5],[1,0.5]];portConstraint=eastwest;rotatable=0;whiteSpace=wrap;html=1;fontSize=10;fontColor=#333333;" parent="LW2s9WkSSxJKJhXJ1fTc-133" vertex="1">
          <mxGeometry y="40" width="130" height="20" as="geometry" />
        </mxCell>
        <mxCell id="LW2s9WkSSxJKJhXJ1fTc-136" value="quantity&amp;nbsp;/&amp;nbsp;tag&amp;nbsp;&lt;i&gt;&lt;b&gt;conf&lt;/b&gt;&lt;/i&gt;" style="text;strokeColor=#666666;fillColor=#f5f5f5;align=left;verticalAlign=middle;spacingLeft=4;spacingRight=4;overflow=hidden;points=[[0,0.5],[1,0.5]];portConstraint=eastwest;rotatable=0;whiteSpace=wrap;html=1;fontSize=10;fontColor=#333333;" parent="LW2s9WkSSxJKJhXJ1fTc-133" vertex="1">
          <mxGeometry y="60" width="130" height="20" as="geometry" />
        </mxCell>
        <mxCell id="LW2s9WkSSxJKJhXJ1fTc-137" value="price&amp;nbsp;/ tag&amp;nbsp;&lt;b&gt;&lt;i&gt;fin_data&lt;/i&gt;&lt;/b&gt;" style="text;strokeColor=#666666;fillColor=#f5f5f5;align=left;verticalAlign=middle;spacingLeft=4;spacingRight=4;overflow=hidden;points=[[0,0.5],[1,0.5]];portConstraint=eastwest;rotatable=0;whiteSpace=wrap;html=1;fontSize=10;fontColor=#333333;" parent="LW2s9WkSSxJKJhXJ1fTc-133" vertex="1">
          <mxGeometry y="80" width="130" height="20" as="geometry" />
        </mxCell>
        <mxCell id="LW2s9WkSSxJKJhXJ1fTc-138" value="total&amp;nbsp;/ tag&amp;nbsp;&lt;b&gt;&lt;i&gt;fin_data&lt;/i&gt;&lt;/b&gt;" style="text;strokeColor=#666666;fillColor=#f5f5f5;align=left;verticalAlign=middle;spacingLeft=4;spacingRight=4;overflow=hidden;points=[[0,0.5],[1,0.5]];portConstraint=eastwest;rotatable=0;whiteSpace=wrap;html=1;fontSize=10;fontColor=#333333;" parent="LW2s9WkSSxJKJhXJ1fTc-133" vertex="1">
          <mxGeometry y="100" width="130" height="20" as="geometry" />
        </mxCell>
        <mxCell id="LW2s9WkSSxJKJhXJ1fTc-139" style="edgeStyle=orthogonalEdgeStyle;rounded=0;orthogonalLoop=1;jettySize=auto;html=1;exitX=0;exitY=0.5;exitDx=0;exitDy=0;entryX=1;entryY=0.5;entryDx=0;entryDy=0;" parent="LW2s9WkSSxJKJhXJ1fTc-1" source="eEkcM7nmRtHEnzHOvD09-5" target="LW2s9WkSSxJKJhXJ1fTc-131" edge="1">
          <mxGeometry relative="1" as="geometry">
            <mxPoint x="-1173.5699999999997" y="-474" as="sourcePoint" />
          </mxGeometry>
        </mxCell>
        <mxCell id="LW2s9WkSSxJKJhXJ1fTc-140" value="1.2" style="swimlane;fontStyle=1;childLayout=stackLayout;horizontal=1;startSize=40;fillColor=#BECADB;horizontalStack=0;resizeParent=1;resizeParentMax=0;resizeLast=0;collapsible=0;marginBottom=0;swimlaneFillColor=#8FBDFF;rounded=1;strokeColor=#FFFFFF;strokeWidth=2;" parent="LW2s9WkSSxJKJhXJ1fTc-1" vertex="1">
          <mxGeometry x="-1257.57" y="-769" width="170" height="100" as="geometry" />
        </mxCell>
        <mxCell id="LW2s9WkSSxJKJhXJ1fTc-141" value="&lt;b&gt;Регистрация платежа&lt;/b&gt;" style="rounded=0;whiteSpace=wrap;html=1;strokeColor=#6c8ebf;opacity=0;fillColor=#dae8fc;" parent="LW2s9WkSSxJKJhXJ1fTc-140" vertex="1">
          <mxGeometry y="40" width="170" height="60" as="geometry" />
        </mxCell>
        <mxCell id="LW2s9WkSSxJKJhXJ1fTc-142" style="edgeStyle=orthogonalEdgeStyle;rounded=0;orthogonalLoop=1;jettySize=auto;html=1;exitX=0;exitY=0.5;exitDx=0;exitDy=0;entryX=1;entryY=0.25;entryDx=0;entryDy=0;" parent="LW2s9WkSSxJKJhXJ1fTc-1" source="LW2s9WkSSxJKJhXJ1fTc-132" target="LW2s9WkSSxJKJhXJ1fTc-141" edge="1">
          <mxGeometry relative="1" as="geometry" />
        </mxCell>
        <mxCell id="LW2s9WkSSxJKJhXJ1fTc-143" value="&lt;b&gt;ACCOUNTANT&lt;/b&gt;" style="html=1;dashed=0;whiteSpace=wrap;rounded=1;fillColor=#ffcc99;strokeColor=#36393d;strokeWidth=2;" parent="LW2s9WkSSxJKJhXJ1fTc-1" vertex="1">
          <mxGeometry x="-420" y="-610" width="160" height="40" as="geometry" />
        </mxCell>
        <mxCell id="LW2s9WkSSxJKJhXJ1fTc-144" style="edgeStyle=orthogonalEdgeStyle;rounded=0;orthogonalLoop=1;jettySize=auto;html=1;exitX=0.5;exitY=0;exitDx=0;exitDy=0;entryX=0.5;entryY=0;entryDx=0;entryDy=0;" parent="LW2s9WkSSxJKJhXJ1fTc-1" source="LW2s9WkSSxJKJhXJ1fTc-51" target="LW2s9WkSSxJKJhXJ1fTc-127" edge="1">
          <mxGeometry relative="1" as="geometry">
            <mxPoint x="-1087.5699999999997" y="-619" as="sourcePoint" />
            <Array as="points">
              <mxPoint x="-1520" y="-830" />
              <mxPoint x="-340" y="-830" />
            </Array>
          </mxGeometry>
        </mxCell>
        <mxCell id="LW2s9WkSSxJKJhXJ1fTc-145" value="&lt;span style=&quot;font-size: 12px;&quot;&gt;Данные заказа пациента&lt;/span&gt;" style="edgeLabel;html=1;align=center;verticalAlign=middle;resizable=0;points=[];" parent="LW2s9WkSSxJKJhXJ1fTc-144" vertex="1" connectable="0">
          <mxGeometry x="-0.183" y="2" relative="1" as="geometry">
            <mxPoint x="469" y="2" as="offset" />
          </mxGeometry>
        </mxCell>
        <mxCell id="eEkcM7nmRtHEnzHOvD09-3" value="&lt;b&gt;&lt;font size=&quot;1&quot; style=&quot;&quot;&gt;&lt;i style=&quot;font-size: 16px;&quot;&gt;TLS&lt;/i&gt;&lt;/font&gt;&lt;/b&gt;" style="edgeLabel;html=1;align=center;verticalAlign=middle;resizable=0;points=[];" parent="LW2s9WkSSxJKJhXJ1fTc-144" vertex="1" connectable="0">
          <mxGeometry x="-0.6756" y="2" relative="1" as="geometry">
            <mxPoint y="216" as="offset" />
          </mxGeometry>
        </mxCell>
        <mxCell id="LW2s9WkSSxJKJhXJ1fTc-146" value="1.1" style="swimlane;fontStyle=1;childLayout=stackLayout;horizontal=1;startSize=40;fillColor=#BECADB;horizontalStack=0;resizeParent=1;resizeParentMax=0;resizeLast=0;collapsible=0;marginBottom=0;swimlaneFillColor=#8FBDFF;rounded=1;strokeColor=#FFFFFF;strokeWidth=2;" parent="LW2s9WkSSxJKJhXJ1fTc-1" vertex="1">
          <mxGeometry x="-690" y="-769" width="170" height="100" as="geometry" />
        </mxCell>
        <mxCell id="LW2s9WkSSxJKJhXJ1fTc-147" value="&lt;b&gt;Оплата медицинской услуги&lt;/b&gt;" style="rounded=0;whiteSpace=wrap;html=1;strokeColor=#6c8ebf;opacity=0;fillColor=#dae8fc;" parent="LW2s9WkSSxJKJhXJ1fTc-146" vertex="1">
          <mxGeometry y="40" width="170" height="60" as="geometry" />
        </mxCell>
        <mxCell id="LW2s9WkSSxJKJhXJ1fTc-148" style="edgeStyle=orthogonalEdgeStyle;rounded=0;orthogonalLoop=1;jettySize=auto;html=1;exitX=0.5;exitY=1;exitDx=0;exitDy=0;entryX=0;entryY=0.5;entryDx=0;entryDy=0;" parent="LW2s9WkSSxJKJhXJ1fTc-1" source="LW2s9WkSSxJKJhXJ1fTc-141" target="LW2s9WkSSxJKJhXJ1fTc-143" edge="1">
          <mxGeometry relative="1" as="geometry" />
        </mxCell>
        <mxCell id="qxSdvj8VyCYYRxK1N-Ad-0" value="3.2" style="swimlane;fontStyle=1;childLayout=stackLayout;horizontal=1;startSize=40;fillColor=#BECADB;horizontalStack=0;resizeParent=1;resizeParentMax=0;resizeLast=0;collapsible=0;marginBottom=0;swimlaneFillColor=#8FBDFF;rounded=1;strokeColor=#FFFFFF;strokeWidth=2;" parent="LW2s9WkSSxJKJhXJ1fTc-1" vertex="1">
          <mxGeometry x="-1257.57" y="115" width="170" height="100" as="geometry" />
        </mxCell>
        <mxCell id="qxSdvj8VyCYYRxK1N-Ad-1" value="&lt;span style=&quot;text-wrap: nowrap;&quot;&gt;&lt;b style=&quot;&quot;&gt;&lt;font style=&quot;font-size: 12px;&quot;&gt;Передача результатов&lt;/font&gt;&lt;/b&gt;&lt;/span&gt;&lt;div&gt;&lt;span style=&quot;text-wrap: nowrap;&quot;&gt;&lt;b style=&quot;&quot;&gt;&lt;font style=&quot;font-size: 12px;&quot;&gt;услуги пациенту&lt;/font&gt;&lt;/b&gt;&lt;/span&gt;&lt;/div&gt;" style="rounded=0;whiteSpace=wrap;html=1;strokeColor=#6c8ebf;opacity=0;fillColor=#dae8fc;align=center;verticalAlign=middle;fontFamily=Helvetica;fontSize=12;fontColor=default;" parent="qxSdvj8VyCYYRxK1N-Ad-0" vertex="1">
          <mxGeometry y="40" width="170" height="60" as="geometry" />
        </mxCell>
        <mxCell id="qxSdvj8VyCYYRxK1N-Ad-5" style="edgeStyle=orthogonalEdgeStyle;rounded=0;orthogonalLoop=1;jettySize=auto;html=1;exitX=0;exitY=0.25;exitDx=0;exitDy=0;entryX=0.5;entryY=1;entryDx=0;entryDy=0;" parent="LW2s9WkSSxJKJhXJ1fTc-1" source="qxSdvj8VyCYYRxK1N-Ad-1" target="LW2s9WkSSxJKJhXJ1fTc-51" edge="1">
          <mxGeometry relative="1" as="geometry" />
        </mxCell>
        <mxCell id="qxSdvj8VyCYYRxK1N-Ad-6" value="Данные исследования" style="edgeLabel;html=1;align=center;verticalAlign=middle;resizable=0;points=[];" parent="qxSdvj8VyCYYRxK1N-Ad-5" vertex="1" connectable="0">
          <mxGeometry x="-0.5755" y="2" relative="1" as="geometry">
            <mxPoint x="1" y="-17" as="offset" />
          </mxGeometry>
        </mxCell>
        <mxCell id="eEkcM7nmRtHEnzHOvD09-4" value="&lt;b&gt;&lt;font size=&quot;1&quot;&gt;&lt;i style=&quot;font-size: 16px;&quot;&gt;TLS&lt;/i&gt;&lt;/font&gt;&lt;/b&gt;" style="edgeLabel;html=1;align=center;verticalAlign=middle;resizable=0;points=[];" parent="qxSdvj8VyCYYRxK1N-Ad-5" vertex="1" connectable="0">
          <mxGeometry x="0.5486" y="-1" relative="1" as="geometry">
            <mxPoint y="128" as="offset" />
          </mxGeometry>
        </mxCell>
        <mxCell id="qxSdvj8VyCYYRxK1N-Ad-7" value="&lt;b&gt;&lt;font style=&quot;font-size: 14px;&quot;&gt;Data Flow Diagram&lt;/font&gt;&lt;/b&gt;" style="rounded=0;whiteSpace=wrap;html=1;" parent="LW2s9WkSSxJKJhXJ1fTc-1" vertex="1">
          <mxGeometry x="-1640" y="-1160" width="360" height="40" as="geometry" />
        </mxCell>
        <mxCell id="Dwi_SahnaFgLUBmUXzcb-14" value="appointment_log_data" style="swimlane;fontStyle=0;childLayout=stackLayout;horizontal=1;startSize=20;horizontalStack=0;resizeParent=1;resizeParentMax=0;resizeLast=0;collapsible=1;marginBottom=0;whiteSpace=wrap;html=1;fontSize=9;" parent="LW2s9WkSSxJKJhXJ1fTc-1" vertex="1" collapsed="1">
          <mxGeometry x="-946.67" y="190" width="130" height="20" as="geometry">
            <mxRectangle x="-836.67" y="230" width="130" height="100" as="alternateBounds" />
          </mxGeometry>
        </mxCell>
        <mxCell id="Dwi_SahnaFgLUBmUXzcb-15" value="app_id" style="text;strokeColor=#666666;fillColor=#f5f5f5;align=left;verticalAlign=middle;spacingLeft=4;spacingRight=4;overflow=hidden;points=[[0,0.5],[1,0.5]];portConstraint=eastwest;rotatable=0;whiteSpace=wrap;html=1;fontSize=10;fontColor=#333333;" parent="Dwi_SahnaFgLUBmUXzcb-14" vertex="1">
          <mxGeometry y="20" width="130" height="20" as="geometry" />
        </mxCell>
        <mxCell id="Dwi_SahnaFgLUBmUXzcb-17" value="datetime" style="text;strokeColor=#666666;fillColor=#f5f5f5;align=left;verticalAlign=middle;spacingLeft=4;spacingRight=4;overflow=hidden;points=[[0,0.5],[1,0.5]];portConstraint=eastwest;rotatable=0;whiteSpace=wrap;html=1;fontSize=10;fontColor=#333333;" parent="Dwi_SahnaFgLUBmUXzcb-14" vertex="1">
          <mxGeometry y="40" width="130" height="20" as="geometry" />
        </mxCell>
        <mxCell id="Dwi_SahnaFgLUBmUXzcb-18" value="results / tag &lt;span style=&quot;font-style: italic;&quot;&gt;&lt;b style=&quot;&quot;&gt;conf&lt;/b&gt;&lt;/span&gt;" style="text;strokeColor=#666666;fillColor=#f5f5f5;align=left;verticalAlign=middle;spacingLeft=4;spacingRight=4;overflow=hidden;points=[[0,0.5],[1,0.5]];portConstraint=eastwest;rotatable=0;whiteSpace=wrap;html=1;fontSize=10;fontColor=#333333;" parent="Dwi_SahnaFgLUBmUXzcb-14" vertex="1">
          <mxGeometry y="60" width="130" height="20" as="geometry" />
        </mxCell>
        <mxCell id="Dwi_SahnaFgLUBmUXzcb-19" value="comments" style="text;strokeColor=#666666;fillColor=#f5f5f5;align=left;verticalAlign=middle;spacingLeft=4;spacingRight=4;overflow=hidden;points=[[0,0.5],[1,0.5]];portConstraint=eastwest;rotatable=0;whiteSpace=wrap;html=1;fontSize=10;fontColor=#333333;" parent="Dwi_SahnaFgLUBmUXzcb-14" vertex="1">
          <mxGeometry y="80" width="130" height="20" as="geometry" />
        </mxCell>
        <mxCell id="Dwi_SahnaFgLUBmUXzcb-30" value="" style="edgeStyle=orthogonalEdgeStyle;rounded=0;orthogonalLoop=1;jettySize=auto;html=1;exitX=1;exitY=0.5;exitDx=0;exitDy=0;entryX=0;entryY=0.5;entryDx=0;entryDy=0;" parent="LW2s9WkSSxJKJhXJ1fTc-1" source="Dwi_SahnaFgLUBmUXzcb-33" target="LW2s9WkSSxJKJhXJ1fTc-64" edge="1">
          <mxGeometry relative="1" as="geometry">
            <mxPoint x="-1088" y="-970" as="sourcePoint" />
            <mxPoint x="-1020" y="-970" as="targetPoint" />
          </mxGeometry>
        </mxCell>
        <mxCell id="Dwi_SahnaFgLUBmUXzcb-34" value="" style="edgeStyle=orthogonalEdgeStyle;rounded=0;orthogonalLoop=1;jettySize=auto;html=1;exitX=1;exitY=0.5;exitDx=0;exitDy=0;entryX=0;entryY=0.5;entryDx=0;entryDy=0;" parent="LW2s9WkSSxJKJhXJ1fTc-1" source="LW2s9WkSSxJKJhXJ1fTc-53" target="Dwi_SahnaFgLUBmUXzcb-33" edge="1">
          <mxGeometry relative="1" as="geometry">
            <mxPoint x="-1088" y="-970" as="sourcePoint" />
            <mxPoint x="-975" y="-970" as="targetPoint" />
          </mxGeometry>
        </mxCell>
        <mxCell id="Dwi_SahnaFgLUBmUXzcb-35" value="Учетные данные&amp;nbsp;&lt;span style=&quot;background-color: initial;&quot;&gt;пациента&lt;/span&gt;" style="edgeLabel;html=1;align=center;verticalAlign=middle;resizable=0;points=[];labelBackgroundColor=none;" parent="Dwi_SahnaFgLUBmUXzcb-34" vertex="1" connectable="0">
          <mxGeometry x="-0.3896" y="1" relative="1" as="geometry">
            <mxPoint x="397" y="-15" as="offset" />
          </mxGeometry>
        </mxCell>
        <mxCell id="Dwi_SahnaFgLUBmUXzcb-33" value="tags" style="shape=image;verticalLabelPosition=bottom;labelBackgroundColor=default;verticalAlign=top;aspect=fixed;imageAspect=0;image=data:image/svg+xml,PHN2ZyB4bWxucz0iaHR0cDovL3d3dy53My5vcmcvMjAwMC9zdmciIGZpbGw9Im5vbmUiIGlkPSJtZXRlb3ItaWNvbi1raXRfX3NvbGlkLXRhZyIgdmlld0JveD0iMCAwIDIzIDIzIiBoZWlnaHQ9IjgwMHB4IiB3aWR0aD0iODAwcHgiPjxwYXRoIGZpbGw9IiM3NThDQTMiIGQ9Ik0wLjcwNzA4IDEyLjI5MjlMMTIuNzA3MSAwLjI5Mjg5M0MxMi44OTQ2IDAuMTA1MzU3IDEzLjE0OSAwIDEzLjQxNDIgMEgyMUMyMi4xMDQ1IDAgMjMgMC44OTU0MyAyMyAyVjkuNTg1NzlDMjMgOS44NTEgMjIuODk0NiAxMC4xMDU0IDIyLjcwNzEgMTAuMjkyOUwxMC43MDcxIDIyLjI5MjlDMTAuMzE2NiAyMi42ODM0IDkuNjgzNCAyMi42ODM0IDkuMjkyOSAyMi4yOTI5TDAuNzA3MDggMTMuNzA3MUMwLjMxNjU1IDEzLjMxNjYgMC4zMTY1NSAxMi42ODM0IDAuNzA3MDggMTIuMjkyOXpNMTcgOEMxOC4xMDQ1IDggMTkgNy4xMDQ1NyAxOSA2QzE5IDQuODk1NDMgMTguMTA0NSA0IDE3IDRDMTUuODk1NCA0IDE1IDQuODk1NDMgMTUgNkMxNSA3LjEwNDU3IDE1Ljg5NTQgOCAxNyA4eiIgY2xpcC1ydWxlPSJldmVub2RkIiBmaWxsLXJ1bGU9ImV2ZW5vZGQiLz48L3N2Zz4=;fontStyle=2" parent="LW2s9WkSSxJKJhXJ1fTc-1" vertex="1">
          <mxGeometry x="-1030" y="-985" width="30" height="30" as="geometry" />
        </mxCell>
        <mxCell id="Dwi_SahnaFgLUBmUXzcb-39" value="" style="edgeStyle=orthogonalEdgeStyle;rounded=0;orthogonalLoop=1;jettySize=auto;html=1;exitX=0;exitY=0.5;exitDx=0;exitDy=0;entryX=1;entryY=0.5;entryDx=0;entryDy=0;" parent="LW2s9WkSSxJKJhXJ1fTc-1" source="LW2s9WkSSxJKJhXJ1fTc-67" target="Dwi_SahnaFgLUBmUXzcb-36" edge="1">
          <mxGeometry relative="1" as="geometry">
            <mxPoint x="-690" y="-460" as="sourcePoint" />
            <mxPoint x="-807" y="-460" as="targetPoint" />
          </mxGeometry>
        </mxCell>
        <mxCell id="Dwi_SahnaFgLUBmUXzcb-36" value="tags" style="shape=image;verticalLabelPosition=bottom;labelBackgroundColor=default;verticalAlign=top;aspect=fixed;imageAspect=0;image=data:image/svg+xml,PHN2ZyB4bWxucz0iaHR0cDovL3d3dy53My5vcmcvMjAwMC9zdmciIGZpbGw9Im5vbmUiIGlkPSJtZXRlb3ItaWNvbi1raXRfX3NvbGlkLXRhZyIgdmlld0JveD0iMCAwIDIzIDIzIiBoZWlnaHQ9IjgwMHB4IiB3aWR0aD0iODAwcHgiPjxwYXRoIGZpbGw9IiM3NThDQTMiIGQ9Ik0wLjcwNzA4IDEyLjI5MjlMMTIuNzA3MSAwLjI5Mjg5M0MxMi44OTQ2IDAuMTA1MzU3IDEzLjE0OSAwIDEzLjQxNDIgMEgyMUMyMi4xMDQ1IDAgMjMgMC44OTU0MyAyMyAyVjkuNTg1NzlDMjMgOS44NTEgMjIuODk0NiAxMC4xMDU0IDIyLjcwNzEgMTAuMjkyOUwxMC43MDcxIDIyLjI5MjlDMTAuMzE2NiAyMi42ODM0IDkuNjgzNCAyMi42ODM0IDkuMjkyOSAyMi4yOTI5TDAuNzA3MDggMTMuNzA3MUMwLjMxNjU1IDEzLjMxNjYgMC4zMTY1NSAxMi42ODM0IDAuNzA3MDggMTIuMjkyOXpNMTcgOEMxOC4xMDQ1IDggMTkgNy4xMDQ1NyAxOSA2QzE5IDQuODk1NDMgMTguMTA0NSA0IDE3IDRDMTUuODk1NCA0IDE1IDQuODk1NDMgMTUgNkMxNSA3LjEwNDU3IDE1Ljg5NTQgOCAxNyA4eiIgY2xpcC1ydWxlPSJldmVub2RkIiBmaWxsLXJ1bGU9ImV2ZW5vZGQiLz48L3N2Zz4=;fontStyle=2" parent="LW2s9WkSSxJKJhXJ1fTc-1" vertex="1">
          <mxGeometry x="-790" y="-475" width="30" height="30" as="geometry" />
        </mxCell>
        <mxCell id="Dwi_SahnaFgLUBmUXzcb-47" value="" style="edgeStyle=orthogonalEdgeStyle;rounded=0;orthogonalLoop=1;jettySize=auto;html=1;exitX=0.5;exitY=1;exitDx=0;exitDy=0;entryX=0;entryY=0.5;entryDx=0;entryDy=0;" parent="LW2s9WkSSxJKJhXJ1fTc-1" source="LW2s9WkSSxJKJhXJ1fTc-81" target="Dwi_SahnaFgLUBmUXzcb-46" edge="1">
          <mxGeometry relative="1" as="geometry">
            <mxPoint x="-967" y="35" as="targetPoint" />
            <mxPoint x="-1173" y="-100" as="sourcePoint" />
          </mxGeometry>
        </mxCell>
        <mxCell id="Dwi_SahnaFgLUBmUXzcb-46" value="tags" style="shape=image;verticalLabelPosition=bottom;labelBackgroundColor=default;verticalAlign=top;aspect=fixed;imageAspect=0;image=data:image/svg+xml,PHN2ZyB4bWxucz0iaHR0cDovL3d3dy53My5vcmcvMjAwMC9zdmciIGZpbGw9Im5vbmUiIGlkPSJtZXRlb3ItaWNvbi1raXRfX3NvbGlkLXRhZyIgdmlld0JveD0iMCAwIDIzIDIzIiBoZWlnaHQ9IjgwMHB4IiB3aWR0aD0iODAwcHgiPjxwYXRoIGZpbGw9IiM3NThDQTMiIGQ9Ik0wLjcwNzA4IDEyLjI5MjlMMTIuNzA3MSAwLjI5Mjg5M0MxMi44OTQ2IDAuMTA1MzU3IDEzLjE0OSAwIDEzLjQxNDIgMEgyMUMyMi4xMDQ1IDAgMjMgMC44OTU0MyAyMyAyVjkuNTg1NzlDMjMgOS44NTEgMjIuODk0NiAxMC4xMDU0IDIyLjcwNzEgMTAuMjkyOUwxMC43MDcxIDIyLjI5MjlDMTAuMzE2NiAyMi42ODM0IDkuNjgzNCAyMi42ODM0IDkuMjkyOSAyMi4yOTI5TDAuNzA3MDggMTMuNzA3MUMwLjMxNjU1IDEzLjMxNjYgMC4zMTY1NSAxMi42ODM0IDAuNzA3MDggMTIuMjkyOXpNMTcgOEMxOC4xMDQ1IDggMTkgNy4xMDQ1NyAxOSA2QzE5IDQuODk1NDMgMTguMTA0NSA0IDE3IDRDMTUuODk1NCA0IDE1IDQuODk1NDMgMTUgNkMxNSA3LjEwNDU3IDE1Ljg5NTQgOCAxNyA4eiIgY2xpcC1ydWxlPSJldmVub2RkIiBmaWxsLXJ1bGU9ImV2ZW5vZGQiLz48L3N2Zz4=;fontStyle=2" parent="LW2s9WkSSxJKJhXJ1fTc-1" vertex="1">
          <mxGeometry x="-1060" y="-40" width="30" height="30" as="geometry" />
        </mxCell>
        <mxCell id="Dwi_SahnaFgLUBmUXzcb-48" value="3.1" style="swimlane;fontStyle=1;childLayout=stackLayout;horizontal=1;startSize=40;fillColor=#BECADB;horizontalStack=0;resizeParent=1;resizeParentMax=0;resizeLast=0;collapsible=0;marginBottom=0;swimlaneFillColor=#8FBDFF;rounded=1;strokeColor=#FFFFFF;strokeWidth=2;" parent="LW2s9WkSSxJKJhXJ1fTc-1" vertex="1">
          <mxGeometry x="-690" y="115" width="170" height="100" as="geometry" />
        </mxCell>
        <mxCell id="Dwi_SahnaFgLUBmUXzcb-49" value="&lt;span style=&quot;text-wrap: nowrap;&quot;&gt;&lt;b&gt;Регистрация результатов&lt;/b&gt;&lt;/span&gt;&lt;div&gt;&lt;span style=&quot;text-wrap: nowrap;&quot;&gt;&lt;b&gt;исследования&lt;/b&gt;&lt;/span&gt;&lt;/div&gt;" style="rounded=0;whiteSpace=wrap;html=1;strokeColor=#6c8ebf;opacity=0;fillColor=#dae8fc;align=center;verticalAlign=middle;fontFamily=Helvetica;fontSize=12;fontColor=default;" parent="Dwi_SahnaFgLUBmUXzcb-48" vertex="1">
          <mxGeometry y="40" width="170" height="60" as="geometry" />
        </mxCell>
        <mxCell id="Dwi_SahnaFgLUBmUXzcb-50" style="edgeStyle=orthogonalEdgeStyle;rounded=0;orthogonalLoop=1;jettySize=auto;html=1;exitX=0;exitY=0.5;exitDx=0;exitDy=0;entryX=1;entryY=0.5;entryDx=0;entryDy=0;" parent="LW2s9WkSSxJKJhXJ1fTc-1" source="Dwi_SahnaFgLUBmUXzcb-51" target="LW2s9WkSSxJKJhXJ1fTc-124" edge="1">
          <mxGeometry relative="1" as="geometry" />
        </mxCell>
        <mxCell id="Dwi_SahnaFgLUBmUXzcb-52" value="" style="edgeStyle=orthogonalEdgeStyle;rounded=0;orthogonalLoop=1;jettySize=auto;html=1;exitX=0;exitY=0.25;exitDx=0;exitDy=0;entryX=1;entryY=0.5;entryDx=0;entryDy=0;" parent="LW2s9WkSSxJKJhXJ1fTc-1" source="Dwi_SahnaFgLUBmUXzcb-49" target="Dwi_SahnaFgLUBmUXzcb-51" edge="1">
          <mxGeometry relative="1" as="geometry">
            <mxPoint x="-690" y="169" as="sourcePoint" />
            <mxPoint x="-807" y="170" as="targetPoint" />
          </mxGeometry>
        </mxCell>
        <mxCell id="Dwi_SahnaFgLUBmUXzcb-51" value="tags" style="shape=image;verticalLabelPosition=bottom;labelBackgroundColor=default;verticalAlign=top;aspect=fixed;imageAspect=0;image=data:image/svg+xml,PHN2ZyB4bWxucz0iaHR0cDovL3d3dy53My5vcmcvMjAwMC9zdmciIGZpbGw9Im5vbmUiIGlkPSJtZXRlb3ItaWNvbi1raXRfX3NvbGlkLXRhZyIgdmlld0JveD0iMCAwIDIzIDIzIiBoZWlnaHQ9IjgwMHB4IiB3aWR0aD0iODAwcHgiPjxwYXRoIGZpbGw9IiM3NThDQTMiIGQ9Ik0wLjcwNzA4IDEyLjI5MjlMMTIuNzA3MSAwLjI5Mjg5M0MxMi44OTQ2IDAuMTA1MzU3IDEzLjE0OSAwIDEzLjQxNDIgMEgyMUMyMi4xMDQ1IDAgMjMgMC44OTU0MyAyMyAyVjkuNTg1NzlDMjMgOS44NTEgMjIuODk0NiAxMC4xMDU0IDIyLjcwNzEgMTAuMjkyOUwxMC43MDcxIDIyLjI5MjlDMTAuMzE2NiAyMi42ODM0IDkuNjgzNCAyMi42ODM0IDkuMjkyOSAyMi4yOTI5TDAuNzA3MDggMTMuNzA3MUMwLjMxNjU1IDEzLjMxNjYgMC4zMTY1NSAxMi42ODM0IDAuNzA3MDggMTIuMjkyOXpNMTcgOEMxOC4xMDQ1IDggMTkgNy4xMDQ1NyAxOSA2QzE5IDQuODk1NDMgMTguMTA0NSA0IDE3IDRDMTUuODk1NCA0IDE1IDQuODk1NDMgMTUgNkMxNSA3LjEwNDU3IDE1Ljg5NTQgOCAxNyA4eiIgY2xpcC1ydWxlPSJldmVub2RkIiBmaWxsLXJ1bGU9ImV2ZW5vZGQiLz48L3N2Zz4=;fontStyle=2" parent="LW2s9WkSSxJKJhXJ1fTc-1" vertex="1">
          <mxGeometry x="-759.9999999999999" y="155" width="30" height="30" as="geometry" />
        </mxCell>
        <object label="Payment info" placeholders="1" id="LW2s9WkSSxJKJhXJ1fTc-131">
          <mxCell style="html=1;dashed=0;whiteSpace=wrap;shape=mxgraph.dfd.dataStoreID;align=center;spacingLeft=3;points=[[0,0],[0.5,0],[1,0],[0,0.5],[1,0.5],[0,1],[0.5,1],[1,1]];rounded=3;strokeColor=#36393d;verticalAlign=middle;fontFamily=Helvetica;fontSize=12;fillColor=#eeeeee;strokeWidth=2;" parent="LW2s9WkSSxJKJhXJ1fTc-1" vertex="1">
            <mxGeometry x="-976" y="-735" width="156.44444444444443" height="42.857142857142854" as="geometry" />
          </mxCell>
        </object>
        <mxCell id="LW2s9WkSSxJKJhXJ1fTc-132" value="&lt;b&gt;D&lt;/b&gt;" style="rounded=0;whiteSpace=wrap;html=1;fillColor=none;" parent="LW2s9WkSSxJKJhXJ1fTc-1" vertex="1">
          <mxGeometry x="-976" y="-735" width="29.333333333333332" height="42.857142857142854" as="geometry" />
        </mxCell>
        <mxCell id="eEkcM7nmRtHEnzHOvD09-6" value="" style="edgeStyle=orthogonalEdgeStyle;rounded=0;orthogonalLoop=1;jettySize=auto;html=1;exitX=0;exitY=0.25;exitDx=0;exitDy=0;entryX=1;entryY=0.5;entryDx=0;entryDy=0;" parent="LW2s9WkSSxJKJhXJ1fTc-1" source="LW2s9WkSSxJKJhXJ1fTc-147" target="eEkcM7nmRtHEnzHOvD09-5" edge="1">
          <mxGeometry relative="1" as="geometry">
            <mxPoint x="-690" y="-714" as="sourcePoint" />
            <mxPoint x="-820" y="-714" as="targetPoint" />
          </mxGeometry>
        </mxCell>
        <mxCell id="eEkcM7nmRtHEnzHOvD09-5" value="tags" style="shape=image;verticalLabelPosition=bottom;labelBackgroundColor=default;verticalAlign=top;aspect=fixed;imageAspect=0;image=data:image/svg+xml,PHN2ZyB4bWxucz0iaHR0cDovL3d3dy53My5vcmcvMjAwMC9zdmciIGZpbGw9Im5vbmUiIGlkPSJtZXRlb3ItaWNvbi1raXRfX3NvbGlkLXRhZyIgdmlld0JveD0iMCAwIDIzIDIzIiBoZWlnaHQ9IjgwMHB4IiB3aWR0aD0iODAwcHgiPjxwYXRoIGZpbGw9IiM3NThDQTMiIGQ9Ik0wLjcwNzA4IDEyLjI5MjlMMTIuNzA3MSAwLjI5Mjg5M0MxMi44OTQ2IDAuMTA1MzU3IDEzLjE0OSAwIDEzLjQxNDIgMEgyMUMyMi4xMDQ1IDAgMjMgMC44OTU0MyAyMyAyVjkuNTg1NzlDMjMgOS44NTEgMjIuODk0NiAxMC4xMDU0IDIyLjcwNzEgMTAuMjkyOUwxMC43MDcxIDIyLjI5MjlDMTAuMzE2NiAyMi42ODM0IDkuNjgzNCAyMi42ODM0IDkuMjkyOSAyMi4yOTI5TDAuNzA3MDggMTMuNzA3MUMwLjMxNjU1IDEzLjMxNjYgMC4zMTY1NSAxMi42ODM0IDAuNzA3MDggMTIuMjkyOXpNMTcgOEMxOC4xMDQ1IDggMTkgNy4xMDQ1NyAxOSA2QzE5IDQuODk1NDMgMTguMTA0NSA0IDE3IDRDMTUuODk1NCA0IDE1IDQuODk1NDMgMTUgNkMxNSA3LjEwNDU3IDE1Ljg5NTQgOCAxNyA4eiIgY2xpcC1ydWxlPSJldmVub2RkIiBmaWxsLXJ1bGU9ImV2ZW5vZGQiLz48L3N2Zz4=;fontStyle=2" parent="LW2s9WkSSxJKJhXJ1fTc-1" vertex="1">
          <mxGeometry x="-782" y="-728.5699999999999" width="30" height="30" as="geometry" />
        </mxCell>
        <mxCell id="LW2s9WkSSxJKJhXJ1fTc-84" value="customer_data" style="swimlane;fontStyle=0;childLayout=stackLayout;horizontal=1;startSize=20;horizontalStack=0;resizeParent=1;resizeParentMax=0;resizeLast=0;collapsible=1;marginBottom=0;whiteSpace=wrap;html=1;fontSize=9;" parent="LW2s9WkSSxJKJhXJ1fTc-1" vertex="1" collapsed="1">
          <mxGeometry x="-946" y="-440" width="130" height="20" as="geometry">
            <mxRectangle x="-836" y="-460" width="130" height="200" as="alternateBounds" />
          </mxGeometry>
        </mxCell>
        <mxCell id="LW2s9WkSSxJKJhXJ1fTc-85" value="first_name&amp;nbsp;/ tag&amp;nbsp;&lt;b&gt;&lt;i&gt;PII&lt;/i&gt;&lt;/b&gt;" style="text;strokeColor=#666666;fillColor=#f5f5f5;align=left;verticalAlign=middle;spacingLeft=4;spacingRight=4;overflow=hidden;points=[[0,0.5],[1,0.5]];portConstraint=eastwest;rotatable=0;whiteSpace=wrap;html=1;fontSize=10;fontColor=#333333;" parent="LW2s9WkSSxJKJhXJ1fTc-84" vertex="1">
          <mxGeometry y="20" width="130" height="20" as="geometry" />
        </mxCell>
        <mxCell id="LW2s9WkSSxJKJhXJ1fTc-86" value="second_name&amp;nbsp;/ tag&amp;nbsp;&lt;b&gt;&lt;i&gt;PII&lt;/i&gt;&lt;/b&gt;" style="text;strokeColor=#666666;fillColor=#f5f5f5;align=left;verticalAlign=middle;spacingLeft=4;spacingRight=4;overflow=hidden;points=[[0,0.5],[1,0.5]];portConstraint=eastwest;rotatable=0;whiteSpace=wrap;html=1;fontSize=10;fontColor=#333333;" parent="LW2s9WkSSxJKJhXJ1fTc-84" vertex="1">
          <mxGeometry y="40" width="130" height="20" as="geometry" />
        </mxCell>
        <mxCell id="LW2s9WkSSxJKJhXJ1fTc-87" value="last_name&amp;nbsp;/ tag&amp;nbsp;&lt;b&gt;&lt;i&gt;PII&lt;/i&gt;&lt;/b&gt;" style="text;strokeColor=#666666;fillColor=#f5f5f5;align=left;verticalAlign=middle;spacingLeft=4;spacingRight=4;overflow=hidden;points=[[0,0.5],[1,0.5]];portConstraint=eastwest;rotatable=0;whiteSpace=wrap;html=1;fontSize=10;fontColor=#333333;" parent="LW2s9WkSSxJKJhXJ1fTc-84" vertex="1">
          <mxGeometry y="60" width="130" height="20" as="geometry" />
        </mxCell>
        <mxCell id="LW2s9WkSSxJKJhXJ1fTc-88" value="birth_date&amp;nbsp;/ tag&amp;nbsp;&lt;b&gt;&lt;i&gt;PII&lt;/i&gt;&lt;/b&gt;" style="text;strokeColor=#666666;fillColor=#f5f5f5;align=left;verticalAlign=middle;spacingLeft=4;spacingRight=4;overflow=hidden;points=[[0,0.5],[1,0.5]];portConstraint=eastwest;rotatable=0;whiteSpace=wrap;html=1;fontSize=10;fontColor=#333333;" parent="LW2s9WkSSxJKJhXJ1fTc-84" vertex="1">
          <mxGeometry y="80" width="130" height="20" as="geometry" />
        </mxCell>
        <mxCell id="LW2s9WkSSxJKJhXJ1fTc-89" value="phone&amp;nbsp;/ tag&amp;nbsp;&lt;b&gt;&lt;i&gt;PII&lt;/i&gt;&lt;/b&gt;" style="text;strokeColor=#666666;fillColor=#f5f5f5;align=left;verticalAlign=middle;spacingLeft=4;spacingRight=4;overflow=hidden;points=[[0,0.5],[1,0.5]];portConstraint=eastwest;rotatable=0;whiteSpace=wrap;html=1;fontSize=10;fontColor=#333333;" parent="LW2s9WkSSxJKJhXJ1fTc-84" vertex="1">
          <mxGeometry y="100" width="130" height="20" as="geometry" />
        </mxCell>
        <mxCell id="LW2s9WkSSxJKJhXJ1fTc-90" value="email&amp;nbsp;/ tag&amp;nbsp;&lt;b&gt;&lt;i&gt;PII&lt;/i&gt;&lt;/b&gt;" style="text;strokeColor=#666666;fillColor=#f5f5f5;align=left;verticalAlign=middle;spacingLeft=4;spacingRight=4;overflow=hidden;points=[[0,0.5],[1,0.5]];portConstraint=eastwest;rotatable=0;whiteSpace=wrap;html=1;fontSize=10;fontColor=#333333;" parent="LW2s9WkSSxJKJhXJ1fTc-84" vertex="1">
          <mxGeometry y="120" width="130" height="20" as="geometry" />
        </mxCell>
        <mxCell id="LW2s9WkSSxJKJhXJ1fTc-91" value="address*&amp;nbsp;/ tag&amp;nbsp;&lt;b&gt;&lt;i&gt;PII&lt;/i&gt;&lt;/b&gt;" style="text;strokeColor=#666666;fillColor=#f5f5f5;align=left;verticalAlign=middle;spacingLeft=4;spacingRight=4;overflow=hidden;points=[[0,0.5],[1,0.5]];portConstraint=eastwest;rotatable=0;whiteSpace=wrap;html=1;fontSize=10;fontColor=#333333;" parent="LW2s9WkSSxJKJhXJ1fTc-84" vertex="1">
          <mxGeometry y="140" width="130" height="20" as="geometry" />
        </mxCell>
        <mxCell id="LW2s9WkSSxJKJhXJ1fTc-92" value="work*&amp;nbsp;/ tag&amp;nbsp;&lt;b&gt;&lt;i&gt;PII&lt;/i&gt;&lt;/b&gt;" style="text;strokeColor=#666666;fillColor=#f5f5f5;align=left;verticalAlign=middle;spacingLeft=4;spacingRight=4;overflow=hidden;points=[[0,0.5],[1,0.5]];portConstraint=eastwest;rotatable=0;whiteSpace=wrap;html=1;fontSize=10;fontColor=#333333;" parent="LW2s9WkSSxJKJhXJ1fTc-84" vertex="1">
          <mxGeometry y="160" width="130" height="20" as="geometry" />
        </mxCell>
        <mxCell id="LW2s9WkSSxJKJhXJ1fTc-93" value="med_conditions*&amp;nbsp;/ tag&amp;nbsp;&lt;b&gt;&lt;i&gt;PII&lt;/i&gt;&lt;/b&gt;" style="text;strokeColor=#666666;fillColor=#f5f5f5;align=left;verticalAlign=middle;spacingLeft=4;spacingRight=4;overflow=hidden;points=[[0,0.5],[1,0.5]];portConstraint=eastwest;rotatable=0;whiteSpace=wrap;html=1;fontSize=10;fontColor=#333333;" parent="LW2s9WkSSxJKJhXJ1fTc-84" vertex="1">
          <mxGeometry y="180" width="130" height="20" as="geometry" />
        </mxCell>
        <mxCell id="LW2s9WkSSxJKJhXJ1fTc-70" value="customer_data" style="swimlane;fontStyle=0;childLayout=stackLayout;horizontal=1;startSize=20;horizontalStack=0;resizeParent=1;resizeParentMax=0;resizeLast=0;collapsible=1;marginBottom=0;whiteSpace=wrap;html=1;fontSize=9;" parent="LW2s9WkSSxJKJhXJ1fTc-1" vertex="1" collapsed="1">
          <mxGeometry x="-946" y="-950" width="130" height="20" as="geometry">
            <mxRectangle x="-946" y="-950" width="130" height="200" as="alternateBounds" />
          </mxGeometry>
        </mxCell>
        <mxCell id="LW2s9WkSSxJKJhXJ1fTc-71" value="first_name&amp;nbsp;/ tag&amp;nbsp;&lt;b&gt;&lt;i&gt;PII&lt;/i&gt;&lt;/b&gt;" style="text;strokeColor=#666666;fillColor=#f5f5f5;align=left;verticalAlign=middle;spacingLeft=4;spacingRight=4;overflow=hidden;points=[[0,0.5],[1,0.5]];portConstraint=eastwest;rotatable=0;whiteSpace=wrap;html=1;fontSize=10;fontColor=#333333;" parent="LW2s9WkSSxJKJhXJ1fTc-70" vertex="1">
          <mxGeometry y="20" width="130" height="20" as="geometry" />
        </mxCell>
        <mxCell id="LW2s9WkSSxJKJhXJ1fTc-72" value="second_name&amp;nbsp;/ tag&amp;nbsp;&lt;b&gt;&lt;i&gt;PII&lt;/i&gt;&lt;/b&gt;" style="text;strokeColor=#666666;fillColor=#f5f5f5;align=left;verticalAlign=middle;spacingLeft=4;spacingRight=4;overflow=hidden;points=[[0,0.5],[1,0.5]];portConstraint=eastwest;rotatable=0;whiteSpace=wrap;html=1;fontSize=10;fontColor=#333333;" parent="LW2s9WkSSxJKJhXJ1fTc-70" vertex="1">
          <mxGeometry y="40" width="130" height="20" as="geometry" />
        </mxCell>
        <mxCell id="LW2s9WkSSxJKJhXJ1fTc-73" value="last_name&amp;nbsp;/ tag&amp;nbsp;&lt;b&gt;&lt;i&gt;PII&lt;/i&gt;&lt;/b&gt;" style="text;strokeColor=#666666;fillColor=#f5f5f5;align=left;verticalAlign=middle;spacingLeft=4;spacingRight=4;overflow=hidden;points=[[0,0.5],[1,0.5]];portConstraint=eastwest;rotatable=0;whiteSpace=wrap;html=1;fontSize=10;fontColor=#333333;" parent="LW2s9WkSSxJKJhXJ1fTc-70" vertex="1">
          <mxGeometry y="60" width="130" height="20" as="geometry" />
        </mxCell>
        <mxCell id="LW2s9WkSSxJKJhXJ1fTc-74" value="birth_date&amp;nbsp;/ tag&amp;nbsp;&lt;b&gt;&lt;i&gt;PII&lt;/i&gt;&lt;/b&gt;" style="text;strokeColor=#666666;fillColor=#f5f5f5;align=left;verticalAlign=middle;spacingLeft=4;spacingRight=4;overflow=hidden;points=[[0,0.5],[1,0.5]];portConstraint=eastwest;rotatable=0;whiteSpace=wrap;html=1;fontSize=10;fontColor=#333333;" parent="LW2s9WkSSxJKJhXJ1fTc-70" vertex="1">
          <mxGeometry y="80" width="130" height="20" as="geometry" />
        </mxCell>
        <mxCell id="LW2s9WkSSxJKJhXJ1fTc-75" value="phone&amp;nbsp;/ tag&amp;nbsp;&lt;b&gt;&lt;i&gt;PII&lt;/i&gt;&lt;/b&gt;" style="text;strokeColor=#666666;fillColor=#f5f5f5;align=left;verticalAlign=middle;spacingLeft=4;spacingRight=4;overflow=hidden;points=[[0,0.5],[1,0.5]];portConstraint=eastwest;rotatable=0;whiteSpace=wrap;html=1;fontSize=10;fontColor=#333333;" parent="LW2s9WkSSxJKJhXJ1fTc-70" vertex="1">
          <mxGeometry y="100" width="130" height="20" as="geometry" />
        </mxCell>
        <mxCell id="LW2s9WkSSxJKJhXJ1fTc-76" value="email&amp;nbsp;/ tag&amp;nbsp;&lt;b&gt;&lt;i&gt;PII&lt;/i&gt;&lt;/b&gt;" style="text;strokeColor=#666666;fillColor=#f5f5f5;align=left;verticalAlign=middle;spacingLeft=4;spacingRight=4;overflow=hidden;points=[[0,0.5],[1,0.5]];portConstraint=eastwest;rotatable=0;whiteSpace=wrap;html=1;fontSize=10;fontColor=#333333;" parent="LW2s9WkSSxJKJhXJ1fTc-70" vertex="1">
          <mxGeometry y="120" width="130" height="20" as="geometry" />
        </mxCell>
        <mxCell id="LW2s9WkSSxJKJhXJ1fTc-77" value="address*&amp;nbsp;/ tag&amp;nbsp;&lt;b&gt;&lt;i&gt;PII&lt;/i&gt;&lt;/b&gt;" style="text;strokeColor=#666666;fillColor=#f5f5f5;align=left;verticalAlign=middle;spacingLeft=4;spacingRight=4;overflow=hidden;points=[[0,0.5],[1,0.5]];portConstraint=eastwest;rotatable=0;whiteSpace=wrap;html=1;fontSize=10;fontColor=#333333;" parent="LW2s9WkSSxJKJhXJ1fTc-70" vertex="1">
          <mxGeometry y="140" width="130" height="20" as="geometry" />
        </mxCell>
        <mxCell id="LW2s9WkSSxJKJhXJ1fTc-78" value="work*&amp;nbsp;/ tag&amp;nbsp;&lt;b&gt;&lt;i&gt;PII&lt;/i&gt;&lt;/b&gt;" style="text;strokeColor=#666666;fillColor=#f5f5f5;align=left;verticalAlign=middle;spacingLeft=4;spacingRight=4;overflow=hidden;points=[[0,0.5],[1,0.5]];portConstraint=eastwest;rotatable=0;whiteSpace=wrap;html=1;fontSize=10;fontColor=#333333;" parent="LW2s9WkSSxJKJhXJ1fTc-70" vertex="1">
          <mxGeometry y="160" width="130" height="20" as="geometry" />
        </mxCell>
        <mxCell id="LW2s9WkSSxJKJhXJ1fTc-79" value="med_conditions*&amp;nbsp;/ tag&amp;nbsp;&lt;b&gt;&lt;i&gt;PII&lt;/i&gt;&lt;/b&gt;" style="text;strokeColor=#666666;fillColor=#f5f5f5;align=left;verticalAlign=middle;spacingLeft=4;spacingRight=4;overflow=hidden;points=[[0,0.5],[1,0.5]];portConstraint=eastwest;rotatable=0;whiteSpace=wrap;html=1;fontSize=10;fontColor=#333333;" parent="LW2s9WkSSxJKJhXJ1fTc-70" vertex="1">
          <mxGeometry y="180" width="130" height="20" as="geometry" />
        </mxCell>
        <mxCell id="jnl5u2AOaFAPthQatXR9-2" value="&lt;span style=&quot;font-size: 14px;&quot;&gt;&lt;b&gt;DFD-1.0 Заказ услуги&lt;/b&gt;&lt;/span&gt;" style="rounded=1;whiteSpace=wrap;html=1;fillColor=#dae8fc;strokeColor=#6c8ebf;arcSize=26;" parent="LW2s9WkSSxJKJhXJ1fTc-1" vertex="1">
          <mxGeometry x="-1605" y="-1080" width="170" height="40" as="geometry" />
        </mxCell>
        <mxCell id="jnl5u2AOaFAPthQatXR9-4" value="&lt;span style=&quot;font-size: 14px;&quot;&gt;&lt;b&gt;DFD-2.0 Запись пациента&lt;/b&gt;&lt;/span&gt;" style="rounded=1;whiteSpace=wrap;html=1;fillColor=#dae8fc;strokeColor=#6c8ebf;arcSize=26;" parent="LW2s9WkSSxJKJhXJ1fTc-1" vertex="1">
          <mxGeometry x="-1605" y="-520" width="170" height="40" as="geometry" />
        </mxCell>
        <mxCell id="jnl5u2AOaFAPthQatXR9-6" value="&lt;span style=&quot;font-size: 14px;&quot;&gt;&lt;b&gt;DFD-3.0 Приём пациента&lt;/b&gt;&lt;/span&gt;" style="rounded=1;whiteSpace=wrap;html=1;fillColor=#dae8fc;strokeColor=#6c8ebf;arcSize=26;" parent="LW2s9WkSSxJKJhXJ1fTc-1" vertex="1">
          <mxGeometry x="-1605" y="-85" width="170" height="40" as="geometry" />
        </mxCell>
      </root>
    </mxGraphModel>
  </diagram>
  <diagram name="context_asis" id="flqb_vgoVWN2gIgyEzhE">
    <mxGraphModel dx="3839" dy="1338" grid="1" gridSize="10" guides="1" tooltips="1" connect="1" arrows="1" fold="1" page="1" pageScale="1" pageWidth="827" pageHeight="1169" math="0" shadow="0">
      <root>
        <mxCell id="0" />
        <mxCell id="1" parent="0" />
        <object placeholders="1" c4Name="МЕДИКАМЕНТЕ" c4Type="SystemScopeBoundary" c4Application="Архитектура" label="&lt;font style=&quot;font-size: 16px&quot;&gt;&lt;b&gt;&lt;div style=&quot;text-align: left&quot;&gt;%c4Name%&lt;/div&gt;&lt;/b&gt;&lt;/font&gt;&lt;div style=&quot;text-align: left&quot;&gt;[%c4Application%]&lt;/div&gt;" id="-rCLtENTZyw--RfLadG2-3">
          <mxCell style="rounded=1;fontSize=11;whiteSpace=wrap;html=1;dashed=1;arcSize=20;fillColor=none;strokeColor=#666666;fontColor=#333333;labelBackgroundColor=none;align=left;verticalAlign=bottom;labelBorderColor=none;spacingTop=0;spacing=10;dashPattern=8 4;metaEdit=1;rotatable=0;perimeter=rectanglePerimeter;noLabel=0;labelPadding=0;allowArrows=0;connectable=0;expand=0;recursiveResize=0;editable=1;pointerEvents=0;absoluteArcSize=1;points=[[0.25,0,0],[0.5,0,0],[0.75,0,0],[1,0.25,0],[1,0.5,0],[1,0.75,0],[0.75,1,0],[0.5,1,0],[0.25,1,0],[0,0.75,0],[0,0.5,0],[0,0.25,0]];" parent="1" vertex="1">
            <mxGeometry x="-920" y="600" width="1050" height="1470" as="geometry" />
          </mxCell>
        </object>
        <object placeholders="1" c4Name="File system" c4Type="ContainerScopeBoundary" c4Application="Хранилище фалов на диске" label="&lt;font style=&quot;font-size: 16px&quot;&gt;&lt;b&gt;&lt;div style=&quot;text-align: left&quot;&gt;%c4Name%&lt;/div&gt;&lt;/b&gt;&lt;/font&gt;&lt;div style=&quot;text-align: left&quot;&gt;[%c4Application%]&lt;/div&gt;" id="-rCLtENTZyw--RfLadG2-1">
          <mxCell style="rounded=1;fontSize=11;whiteSpace=wrap;html=1;dashed=1;arcSize=20;fillColor=none;strokeColor=#666666;fontColor=#333333;labelBackgroundColor=none;align=left;verticalAlign=bottom;labelBorderColor=none;spacingTop=0;spacing=10;dashPattern=8 4;metaEdit=1;rotatable=0;perimeter=rectanglePerimeter;noLabel=0;labelPadding=0;allowArrows=0;connectable=0;expand=0;recursiveResize=0;editable=1;pointerEvents=0;absoluteArcSize=1;points=[[0.25,0,0],[0.5,0,0],[0.75,0,0],[1,0.25,0],[1,0.5,0],[1,0.75,0],[0.75,1,0],[0.5,1,0],[0.25,1,0],[0,0.75,0],[0,0.5,0],[0,0.25,0]];" parent="1" vertex="1">
            <mxGeometry x="-860" y="690" width="970" height="720" as="geometry" />
          </mxCell>
        </object>
        <object placeholders="1" c4Name="FileServer" c4Type="ContainerScopeBoundary" c4Application="Container" label="&lt;font style=&quot;font-size: 16px&quot;&gt;&lt;b&gt;&lt;div style=&quot;text-align: left&quot;&gt;%c4Name%&lt;/div&gt;&lt;/b&gt;&lt;/font&gt;&lt;div style=&quot;text-align: left&quot;&gt;[%c4Application%]&lt;/div&gt;" id="-rCLtENTZyw--RfLadG2-2">
          <mxCell style="rounded=1;fontSize=11;whiteSpace=wrap;html=1;dashed=1;arcSize=20;fillColor=none;strokeColor=#666666;fontColor=#333333;labelBackgroundColor=none;align=left;verticalAlign=bottom;labelBorderColor=none;spacingTop=0;spacing=10;dashPattern=8 4;metaEdit=1;rotatable=0;perimeter=rectanglePerimeter;noLabel=0;labelPadding=0;allowArrows=0;connectable=0;expand=0;recursiveResize=0;editable=1;pointerEvents=0;absoluteArcSize=1;points=[[0.25,0,0],[0.5,0,0],[0.75,0,0],[1,0.25,0],[1,0.5,0],[1,0.75,0],[0.75,1,0],[0.5,1,0],[0.25,1,0],[0,0.75,0],[0,0.5,0],[0,0.25,0]];" parent="1" vertex="1">
            <mxGeometry x="-890" y="680" width="1010" height="1190" as="geometry" />
          </mxCell>
        </object>
        <object placeholders="1" c4Name="Administrator" c4Type="Person" c4Description="Сотрудник ресепшена" label="&lt;font style=&quot;font-size: 16px&quot;&gt;&lt;b&gt;%c4Name%&lt;/b&gt;&lt;/font&gt;&lt;div&gt;[%c4Type%]&lt;/div&gt;&lt;br&gt;&lt;div&gt;&lt;font style=&quot;font-size: 11px&quot;&gt;&lt;font color=&quot;#cccccc&quot;&gt;%c4Description%&lt;/font&gt;&lt;/div&gt;" id="-rCLtENTZyw--RfLadG2-6">
          <mxCell style="html=1;fontSize=11;dashed=0;whiteSpace=wrap;fillColor=#083F75;strokeColor=#06315C;fontColor=#ffffff;shape=mxgraph.c4.person2;align=center;metaEdit=1;points=[[0.5,0,0],[1,0.5,0],[1,0.75,0],[0.75,1,0],[0.5,1,0],[0.25,1,0],[0,0.75,0],[0,0.5,0]];resizable=0;" parent="1" vertex="1">
            <mxGeometry x="-1290" y="710" width="200" height="180" as="geometry" />
          </mxCell>
        </object>
        <object placeholders="1" c4Name="Bookkeeper" c4Type="Person" c4Description="Бухгалтер" label="&lt;font style=&quot;font-size: 16px&quot;&gt;&lt;b&gt;%c4Name%&lt;/b&gt;&lt;/font&gt;&lt;div&gt;[%c4Type%]&lt;/div&gt;&lt;br&gt;&lt;div&gt;&lt;font style=&quot;font-size: 11px&quot;&gt;&lt;font color=&quot;#cccccc&quot;&gt;%c4Description%&lt;/font&gt;&lt;/div&gt;" id="-rCLtENTZyw--RfLadG2-7">
          <mxCell style="html=1;fontSize=11;dashed=0;whiteSpace=wrap;fillColor=#083F75;strokeColor=#06315C;fontColor=#ffffff;shape=mxgraph.c4.person2;align=center;metaEdit=1;points=[[0.5,0,0],[1,0.5,0],[1,0.75,0],[0.75,1,0],[0.5,1,0],[0.25,1,0],[0,0.75,0],[0,0.5,0]];resizable=0;" parent="1" vertex="1">
            <mxGeometry x="-1300" y="1360" width="200" height="180" as="geometry" />
          </mxCell>
        </object>
        <object placeholders="1" c4Name="Cassier" c4Type="Person" c4Description="Кассир" label="&lt;font style=&quot;font-size: 16px&quot;&gt;&lt;b&gt;%c4Name%&lt;/b&gt;&lt;/font&gt;&lt;div&gt;[%c4Type%]&lt;/div&gt;&lt;br&gt;&lt;div&gt;&lt;font style=&quot;font-size: 11px&quot;&gt;&lt;font color=&quot;#cccccc&quot;&gt;%c4Description%&lt;/font&gt;&lt;/div&gt;" id="-rCLtENTZyw--RfLadG2-8">
          <mxCell style="html=1;fontSize=11;dashed=0;whiteSpace=wrap;fillColor=#083F75;strokeColor=#06315C;fontColor=#ffffff;shape=mxgraph.c4.person2;align=center;metaEdit=1;points=[[0.5,0,0],[1,0.5,0],[1,0.75,0],[0.75,1,0],[0.5,1,0],[0.25,1,0],[0,0.75,0],[0,0.5,0]];resizable=0;" parent="1" vertex="1">
            <mxGeometry x="350" y="1697.5" width="200" height="180" as="geometry" />
          </mxCell>
        </object>
        <object placeholders="1" c4Name="Patient" c4Type="Person" c4Description="Пациент" label="&lt;font style=&quot;font-size: 16px&quot;&gt;&lt;b&gt;%c4Name%&lt;/b&gt;&lt;/font&gt;&lt;div&gt;[%c4Type%]&lt;/div&gt;&lt;br&gt;&lt;div&gt;&lt;font style=&quot;font-size: 11px&quot;&gt;&lt;font color=&quot;#cccccc&quot;&gt;%c4Description%&lt;/font&gt;&lt;/div&gt;" id="-rCLtENTZyw--RfLadG2-9">
          <mxCell style="html=1;fontSize=11;dashed=0;whiteSpace=wrap;fillColor=#6C6477;strokeColor=#4D4D4D;fontColor=#ffffff;shape=mxgraph.c4.person2;align=center;metaEdit=1;points=[[0.5,0,0],[1,0.5,0],[1,0.75,0],[0.75,1,0],[0.5,1,0],[0.25,1,0],[0,0.75,0],[0,0.5,0]];resizable=0;" parent="1" vertex="1">
            <mxGeometry x="350" y="1350" width="200" height="180" as="geometry" />
          </mxCell>
        </object>
        <object placeholders="1" c4Name="1C Бухгалтерия предприятия" c4Type="Software System" c4Description="Бухгалтерская система учёта. Работает в файловом режиме" label="&lt;font style=&quot;font-size: 16px&quot;&gt;&lt;b&gt;%c4Name%&lt;/b&gt;&lt;/font&gt;&lt;div&gt;[%c4Type%]&lt;/div&gt;&lt;br&gt;&lt;div&gt;&lt;font style=&quot;font-size: 11px&quot;&gt;&lt;font color=&quot;#cccccc&quot;&gt;%c4Description%&lt;/font&gt;&lt;/div&gt;" id="-rCLtENTZyw--RfLadG2-20">
          <mxCell style="rounded=1;whiteSpace=wrap;html=1;labelBackgroundColor=none;fillColor=#1061B0;fontColor=#ffffff;align=center;arcSize=10;strokeColor=#0D5091;metaEdit=1;resizable=0;points=[[0.25,0,0],[0.5,0,0],[0.75,0,0],[1,0.25,0],[1,0.5,0],[1,0.75,0],[0.75,1,0],[0.5,1,0],[0.25,1,0],[0,0.75,0],[0,0.5,0],[0,0.25,0]];" parent="1" vertex="1">
            <mxGeometry x="-780" y="1422.5" width="240" height="120" as="geometry" />
          </mxCell>
        </object>
        <object placeholders="1" c4Name="ККМ" c4Type="Software System" c4Description="Контрольно-кассовая машина" label="&lt;font style=&quot;font-size: 16px&quot;&gt;&lt;b&gt;%c4Name%&lt;/b&gt;&lt;/font&gt;&lt;div&gt;[%c4Type%]&lt;/div&gt;&lt;br&gt;&lt;div&gt;&lt;font style=&quot;font-size: 11px&quot;&gt;&lt;font color=&quot;#cccccc&quot;&gt;%c4Description%&lt;/font&gt;&lt;/div&gt;" id="-rCLtENTZyw--RfLadG2-21">
          <mxCell style="rounded=1;whiteSpace=wrap;html=1;labelBackgroundColor=none;fillColor=#1061B0;fontColor=#ffffff;align=center;arcSize=10;strokeColor=#0D5091;metaEdit=1;resizable=0;points=[[0.25,0,0],[0.5,0,0],[0.75,0,0],[1,0.25,0],[1,0.5,0],[1,0.75,0],[0.75,1,0],[0.5,1,0],[0.25,1,0],[0,0.75,0],[0,0.5,0],[0,0.25,0]];" parent="1" vertex="1">
            <mxGeometry x="-140" y="1910" width="240" height="120" as="geometry" />
          </mxCell>
        </object>
        <object placeholders="1" c4Name="Exchange Mail Server" c4Type="Software System" c4Description="Почтовый сервис внутренней почты" label="&lt;font style=&quot;font-size: 16px&quot;&gt;&lt;b&gt;%c4Name%&lt;/b&gt;&lt;/font&gt;&lt;div&gt;[%c4Type%]&lt;/div&gt;&lt;br&gt;&lt;div&gt;&lt;font style=&quot;font-size: 11px&quot;&gt;&lt;font color=&quot;#cccccc&quot;&gt;%c4Description%&lt;/font&gt;&lt;/div&gt;" id="-rCLtENTZyw--RfLadG2-22">
          <mxCell style="rounded=1;whiteSpace=wrap;html=1;labelBackgroundColor=none;fillColor=#1061B0;fontColor=#ffffff;align=center;arcSize=10;strokeColor=#0D5091;metaEdit=1;resizable=0;points=[[0.25,0,0],[0.5,0,0],[0.75,0,0],[1,0.25,0],[1,0.5,0],[1,0.75,0],[0.75,1,0],[0.5,1,0],[0.25,1,0],[0,0.75,0],[0,0.5,0],[0,0.25,0]];" parent="1" vertex="1">
            <mxGeometry x="-780" y="1730" width="240" height="120" as="geometry" />
          </mxCell>
        </object>
        <object placeholders="1" c4Name="Journals" c4Type="Folder" c4Application="Папка" label="&lt;font style=&quot;font-size: 16px&quot;&gt;&lt;b&gt;&lt;div style=&quot;text-align: left&quot;&gt;%c4Name%&lt;/div&gt;&lt;/b&gt;&lt;/font&gt;&lt;div style=&quot;text-align: left&quot;&gt;[%c4Application%]&lt;/div&gt;" id="09KiZqYfXbnlfeXMHTuH-1">
          <mxCell style="rounded=1;fontSize=11;whiteSpace=wrap;html=1;dashed=1;arcSize=20;fillColor=none;strokeColor=#666666;fontColor=#333333;labelBackgroundColor=none;align=left;verticalAlign=bottom;labelBorderColor=none;spacingTop=0;spacing=10;dashPattern=8 4;metaEdit=1;rotatable=0;perimeter=rectanglePerimeter;noLabel=0;labelPadding=0;allowArrows=0;connectable=0;expand=0;recursiveResize=0;editable=1;pointerEvents=0;absoluteArcSize=1;points=[[0.25,0,0],[0.5,0,0],[0.75,0,0],[1,0.25,0],[1,0.5,0],[1,0.75,0],[0.75,1,0],[0.5,1,0],[0.25,1,0],[0,0.75,0],[0,0.5,0],[0,0.25,0]];" parent="1" vertex="1">
            <mxGeometry x="-820" y="700" width="530" height="240" as="geometry" />
          </mxCell>
        </object>
        <object placeholders="1" c4Name="Pacients" c4Type="Folder" c4Application="Папка" label="&lt;font style=&quot;font-size: 16px&quot;&gt;&lt;b&gt;&lt;div style=&quot;text-align: left&quot;&gt;%c4Name%&lt;/div&gt;&lt;/b&gt;&lt;/font&gt;&lt;div style=&quot;text-align: left&quot;&gt;[%c4Application%]&lt;/div&gt;" id="09KiZqYfXbnlfeXMHTuH-2">
          <mxCell style="rounded=1;fontSize=11;whiteSpace=wrap;html=1;dashed=1;arcSize=20;fillColor=none;strokeColor=#666666;fontColor=#333333;labelBackgroundColor=none;align=left;verticalAlign=bottom;labelBorderColor=none;spacingTop=0;spacing=10;dashPattern=8 4;metaEdit=1;rotatable=0;perimeter=rectanglePerimeter;noLabel=0;labelPadding=0;allowArrows=0;connectable=0;expand=0;recursiveResize=0;editable=1;pointerEvents=0;absoluteArcSize=1;points=[[0.25,0,0],[0.5,0,0],[0.75,0,0],[1,0.25,0],[1,0.5,0],[1,0.75,0],[0.75,1,0],[0.5,1,0],[0.25,1,0],[0,0.75,0],[0,0.5,0],[0,0.25,0]];" parent="1" vertex="1">
            <mxGeometry x="-820" y="950" width="530" height="410" as="geometry" />
          </mxCell>
        </object>
        <object placeholders="1" c4Name="Pacient1-FIO-BD" c4Type="Folder" c4Application="Папка" label="&lt;font style=&quot;font-size: 16px&quot;&gt;&lt;b&gt;&lt;div style=&quot;text-align: left&quot;&gt;%c4Name%&lt;/div&gt;&lt;/b&gt;&lt;/font&gt;&lt;div style=&quot;text-align: left&quot;&gt;[%c4Application%]&lt;/div&gt;" id="09KiZqYfXbnlfeXMHTuH-3">
          <mxCell style="rounded=1;fontSize=11;whiteSpace=wrap;html=1;dashed=1;arcSize=20;fillColor=none;strokeColor=#666666;fontColor=#333333;labelBackgroundColor=none;align=left;verticalAlign=bottom;labelBorderColor=none;spacingTop=0;spacing=10;dashPattern=8 4;metaEdit=1;rotatable=0;perimeter=rectanglePerimeter;noLabel=0;labelPadding=0;allowArrows=0;connectable=0;expand=0;recursiveResize=0;editable=1;pointerEvents=0;absoluteArcSize=1;points=[[0.25,0,0],[0.5,0,0],[0.75,0,0],[1,0.25,0],[1,0.5,0],[1,0.75,0],[0.75,1,0],[0.5,1,0],[0.25,1,0],[0,0.75,0],[0,0.5,0],[0,0.25,0]];" parent="1" vertex="1">
            <mxGeometry x="-810" y="1100" width="510" height="210" as="geometry" />
          </mxCell>
        </object>
        <object placeholders="1" c4Name="Patients" c4Type="Excel file" c4Description="Excel-файл со списком пациентов" label="&lt;font style=&quot;font-size: 16px&quot;&gt;&lt;b&gt;%c4Name%&lt;/b&gt;&lt;/font&gt;&lt;div&gt;[%c4Type%]&lt;/div&gt;&lt;br&gt;&lt;div&gt;&lt;font style=&quot;font-size: 11px&quot;&gt;&lt;font color=&quot;#cccccc&quot;&gt;%c4Description%&lt;/font&gt;&lt;/div&gt;" id="09KiZqYfXbnlfeXMHTuH-4">
          <mxCell style="rounded=1;whiteSpace=wrap;html=1;labelBackgroundColor=none;fillColor=#1061B0;fontColor=#ffffff;align=center;arcSize=10;strokeColor=#0D5091;metaEdit=1;resizable=0;points=[[0.25,0,0],[0.5,0,0],[0.75,0,0],[1,0.25,0],[1,0.5,0],[1,0.75,0],[0.75,1,0],[0.5,1,0],[0.25,1,0],[0,0.75,0],[0,0.5,0],[0,0.25,0]];" parent="1" vertex="1">
            <mxGeometry x="-810" y="960" width="240" height="120" as="geometry" />
          </mxCell>
        </object>
        <object placeholders="1" c4Name="Journal-Doctor-FIO" c4Type="Excel file" c4Description="Excel файл Журнал записей к одному специалисту" label="&lt;font style=&quot;font-size: 16px&quot;&gt;&lt;b&gt;%c4Name%&lt;/b&gt;&lt;/font&gt;&lt;div&gt;[%c4Type%]&lt;/div&gt;&lt;br&gt;&lt;div&gt;&lt;font style=&quot;font-size: 11px&quot;&gt;&lt;font color=&quot;#cccccc&quot;&gt;%c4Description%&lt;/font&gt;&lt;/div&gt;" id="09KiZqYfXbnlfeXMHTuH-5">
          <mxCell style="rounded=1;whiteSpace=wrap;html=1;labelBackgroundColor=none;fillColor=#1061B0;fontColor=#ffffff;align=center;arcSize=10;strokeColor=#0D5091;metaEdit=1;resizable=0;points=[[0.25,0,0],[0.5,0,0],[0.75,0,0],[1,0.25,0],[1,0.5,0],[1,0.75,0],[0.75,1,0],[0.5,1,0],[0.25,1,0],[0,0.75,0],[0,0.5,0],[0,0.25,0]];" parent="1" vertex="1">
            <mxGeometry x="-680" y="750" width="240" height="120" as="geometry" />
          </mxCell>
        </object>
        <object placeholders="1" c4Name="Journal-Doctor-FIO" c4Type="Excel file" c4Description="Excel файл Журнал записей к одному специалисту" label="&lt;font style=&quot;font-size: 16px&quot;&gt;&lt;b&gt;%c4Name%&lt;/b&gt;&lt;/font&gt;&lt;div&gt;[%c4Type%]&lt;/div&gt;&lt;br&gt;&lt;div&gt;&lt;font style=&quot;font-size: 11px&quot;&gt;&lt;font color=&quot;#cccccc&quot;&gt;%c4Description%&lt;/font&gt;&lt;/div&gt;" id="09KiZqYfXbnlfeXMHTuH-6">
          <mxCell style="rounded=1;whiteSpace=wrap;html=1;labelBackgroundColor=none;fillColor=#1061B0;fontColor=#ffffff;align=center;arcSize=10;strokeColor=#0D5091;metaEdit=1;resizable=0;points=[[0.25,0,0],[0.5,0,0],[0.75,0,0],[1,0.25,0],[1,0.5,0],[1,0.75,0],[0.75,1,0],[0.5,1,0],[0.25,1,0],[0,0.75,0],[0,0.5,0],[0,0.25,0]];" parent="1" vertex="1">
            <mxGeometry x="-670" y="760" width="240" height="120" as="geometry" />
          </mxCell>
        </object>
        <object placeholders="1" c4Name="Journal-Doctor-FIO 1" c4Type="Excel file" c4Description="Excel-файл: журнал, где регистрируют запись пациентов к одному специалисту" label="&lt;font style=&quot;font-size: 16px&quot;&gt;&lt;b&gt;%c4Name%&lt;/b&gt;&lt;/font&gt;&lt;div&gt;[%c4Type%]&lt;/div&gt;&lt;br&gt;&lt;div&gt;&lt;font style=&quot;font-size: 11px&quot;&gt;&lt;font color=&quot;#cccccc&quot;&gt;%c4Description%&lt;/font&gt;&lt;/div&gt;" id="09KiZqYfXbnlfeXMHTuH-7">
          <mxCell style="rounded=1;whiteSpace=wrap;html=1;labelBackgroundColor=none;fillColor=#1061B0;fontColor=#ffffff;align=center;arcSize=10;strokeColor=#0D5091;metaEdit=1;resizable=0;points=[[0.25,0,0],[0.5,0,0],[0.75,0,0],[1,0.25,0],[1,0.5,0],[1,0.75,0],[0.75,1,0],[0.5,1,0],[0.25,1,0],[0,0.75,0],[0,0.5,0],[0,0.25,0]];" parent="1" vertex="1">
            <mxGeometry x="-660" y="770" width="240" height="120" as="geometry" />
          </mxCell>
        </object>
        <object placeholders="1" c4Name="Data file" c4Type="Any file" c4Description="Файлы пациента в различных форматах" label="&lt;font style=&quot;font-size: 16px&quot;&gt;&lt;b&gt;%c4Name%&lt;/b&gt;&lt;/font&gt;&lt;div&gt;[%c4Type%]&lt;/div&gt;&lt;br&gt;&lt;div&gt;&lt;font style=&quot;font-size: 11px&quot;&gt;&lt;font color=&quot;#cccccc&quot;&gt;%c4Description%&lt;/font&gt;&lt;/div&gt;" id="09KiZqYfXbnlfeXMHTuH-8">
          <mxCell style="rounded=1;whiteSpace=wrap;html=1;labelBackgroundColor=none;fillColor=#1061B0;fontColor=#ffffff;align=center;arcSize=10;strokeColor=#0D5091;metaEdit=1;resizable=0;points=[[0.25,0,0],[0.5,0,0],[0.75,0,0],[1,0.25,0],[1,0.5,0],[1,0.75,0],[0.75,1,0],[0.5,1,0],[0.25,1,0],[0,0.75,0],[0,0.5,0],[0,0.25,0]];" parent="1" vertex="1">
            <mxGeometry x="-790" y="1120" width="240" height="120" as="geometry" />
          </mxCell>
        </object>
        <object placeholders="1" c4Name="Data file" c4Type="Any file" c4Description="Файлы пациента в различных форматах" label="&lt;font style=&quot;font-size: 16px&quot;&gt;&lt;b&gt;%c4Name%&lt;/b&gt;&lt;/font&gt;&lt;div&gt;[%c4Type%]&lt;/div&gt;&lt;br&gt;&lt;div&gt;&lt;font style=&quot;font-size: 11px&quot;&gt;&lt;font color=&quot;#cccccc&quot;&gt;%c4Description%&lt;/font&gt;&lt;/div&gt;" id="09KiZqYfXbnlfeXMHTuH-9">
          <mxCell style="rounded=1;whiteSpace=wrap;html=1;labelBackgroundColor=none;fillColor=#1061B0;fontColor=#ffffff;align=center;arcSize=10;strokeColor=#0D5091;metaEdit=1;resizable=0;points=[[0.25,0,0],[0.5,0,0],[0.75,0,0],[1,0.25,0],[1,0.5,0],[1,0.75,0],[0.75,1,0],[0.5,1,0],[0.25,1,0],[0,0.75,0],[0,0.5,0],[0,0.25,0]];" parent="1" vertex="1">
            <mxGeometry x="-780" y="1130" width="240" height="120" as="geometry" />
          </mxCell>
        </object>
        <object placeholders="1" c4Name="Data file 1" c4Type="Any file" c4Description="Файлы пациента в разных форматах" label="&lt;font style=&quot;font-size: 16px&quot;&gt;&lt;b&gt;%c4Name%&lt;/b&gt;&lt;/font&gt;&lt;div&gt;[%c4Type%]&lt;/div&gt;&lt;br&gt;&lt;div&gt;&lt;font style=&quot;font-size: 11px&quot;&gt;&lt;font color=&quot;#cccccc&quot;&gt;%c4Description%&lt;/font&gt;&lt;/div&gt;" id="09KiZqYfXbnlfeXMHTuH-10">
          <mxCell style="rounded=1;whiteSpace=wrap;html=1;labelBackgroundColor=none;fillColor=#1061B0;fontColor=#ffffff;align=center;arcSize=10;strokeColor=#0D5091;metaEdit=1;resizable=0;points=[[0.25,0,0],[0.5,0,0],[0.75,0,0],[1,0.25,0],[1,0.5,0],[1,0.75,0],[0.75,1,0],[0.5,1,0],[0.25,1,0],[0,0.75,0],[0,0.5,0],[0,0.25,0]];" parent="1" vertex="1">
            <mxGeometry x="-770" y="1140" width="240" height="120" as="geometry" />
          </mxCell>
        </object>
        <object placeholders="1" c4Name="1C Торговля и склад" c4Type="Software System" c4Description="Складская система учёта. Работает в файловом режиме" label="&lt;font style=&quot;font-size: 16px&quot;&gt;&lt;b&gt;%c4Name%&lt;/b&gt;&lt;/font&gt;&lt;div&gt;[%c4Type%]&lt;/div&gt;&lt;br&gt;&lt;div&gt;&lt;font style=&quot;font-size: 11px&quot;&gt;&lt;font color=&quot;#cccccc&quot;&gt;%c4Description%&lt;/font&gt;&lt;/div&gt;" id="09KiZqYfXbnlfeXMHTuH-11">
          <mxCell style="rounded=1;whiteSpace=wrap;html=1;labelBackgroundColor=none;fillColor=#1061B0;fontColor=#ffffff;align=center;arcSize=10;strokeColor=#0D5091;metaEdit=1;resizable=0;points=[[0.25,0,0],[0.5,0,0],[0.75,0,0],[1,0.25,0],[1,0.5,0],[1,0.75,0],[0.75,1,0],[0.5,1,0],[0.25,1,0],[0,0.75,0],[0,0.5,0],[0,0.25,0]];" parent="1" vertex="1">
            <mxGeometry x="-780" y="1577.5" width="240" height="120" as="geometry" />
          </mxCell>
        </object>
        <object placeholders="1" c4Name="Warehouse keeper" c4Type="Person" c4Description="Сотрудник склада" label="&lt;font style=&quot;font-size: 16px&quot;&gt;&lt;b&gt;%c4Name%&lt;/b&gt;&lt;/font&gt;&lt;div&gt;[%c4Type%]&lt;/div&gt;&lt;br&gt;&lt;div&gt;&lt;font style=&quot;font-size: 11px&quot;&gt;&lt;font color=&quot;#cccccc&quot;&gt;%c4Description%&lt;/font&gt;&lt;/div&gt;" id="09KiZqYfXbnlfeXMHTuH-12">
          <mxCell style="html=1;fontSize=11;dashed=0;whiteSpace=wrap;fillColor=#083F75;strokeColor=#06315C;fontColor=#ffffff;shape=mxgraph.c4.person2;align=center;metaEdit=1;points=[[0.5,0,0],[1,0.5,0],[1,0.75,0],[0.75,1,0],[0.5,1,0],[0.25,1,0],[0,0.75,0],[0,0.5,0]];resizable=0;" parent="1" vertex="1">
            <mxGeometry x="-1300" y="1640" width="200" height="180" as="geometry" />
          </mxCell>
        </object>
        <object placeholders="1" c4Type="Relationship" c4Technology="OLE" c4Description="Внутриплатформенный обмен данными" label="&lt;div style=&quot;text-align: left&quot;&gt;&lt;div style=&quot;text-align: center&quot;&gt;&lt;b&gt;%c4Description%&lt;/b&gt;&lt;/div&gt;&lt;div style=&quot;text-align: center&quot;&gt;[%c4Technology%]&lt;/div&gt;&lt;/div&gt;" id="09KiZqYfXbnlfeXMHTuH-14">
          <mxCell style="endArrow=blockThin;html=1;fontSize=10;fontColor=#404040;strokeWidth=1;endFill=1;strokeColor=#828282;elbow=vertical;metaEdit=1;endSize=14;startSize=14;jumpStyle=arc;jumpSize=16;rounded=0;edgeStyle=orthogonalEdgeStyle;exitX=1;exitY=0.75;exitDx=0;exitDy=0;exitPerimeter=0;entryX=1;entryY=0.25;entryDx=0;entryDy=0;entryPerimeter=0;startArrow=blockThin;startFill=1;" parent="1" source="-rCLtENTZyw--RfLadG2-20" target="09KiZqYfXbnlfeXMHTuH-11" edge="1">
            <mxGeometry width="240" relative="1" as="geometry">
              <mxPoint x="-690" y="1557.5" as="sourcePoint" />
              <mxPoint x="-450" y="1557.5" as="targetPoint" />
              <Array as="points">
                <mxPoint x="-420" y="1513" />
                <mxPoint x="-420" y="1608" />
              </Array>
            </mxGeometry>
          </mxCell>
        </object>
        <object placeholders="1" c4Type="Relationship" c4Description="Учет ТМЦ" label="&lt;div style=&quot;text-align: left&quot;&gt;&lt;div style=&quot;text-align: center&quot;&gt;&lt;b&gt;%c4Description%&lt;/b&gt;&lt;/div&gt;" id="09KiZqYfXbnlfeXMHTuH-15">
          <mxCell style="endArrow=blockThin;html=1;fontSize=10;fontColor=#404040;strokeWidth=1;endFill=1;strokeColor=#828282;elbow=vertical;metaEdit=1;endSize=14;startSize=14;jumpStyle=arc;jumpSize=16;rounded=0;edgeStyle=orthogonalEdgeStyle;exitX=1;exitY=0.5;exitDx=0;exitDy=0;exitPerimeter=0;entryX=0;entryY=0.5;entryDx=0;entryDy=0;entryPerimeter=0;" parent="1" source="09KiZqYfXbnlfeXMHTuH-12" target="09KiZqYfXbnlfeXMHTuH-11" edge="1">
            <mxGeometry width="240" relative="1" as="geometry">
              <mxPoint x="-900" y="1630" as="sourcePoint" />
              <mxPoint x="-660" y="1630" as="targetPoint" />
            </mxGeometry>
          </mxCell>
        </object>
        <object placeholders="1" c4Type="Relationship" c4Description="Процессинг платежей" label="&lt;div style=&quot;text-align: left&quot;&gt;&lt;div style=&quot;text-align: center&quot;&gt;&lt;b&gt;%c4Description%&lt;/b&gt;&lt;/div&gt;" id="09KiZqYfXbnlfeXMHTuH-16">
          <mxCell style="endArrow=blockThin;html=1;fontSize=10;fontColor=#404040;strokeWidth=1;endFill=1;strokeColor=#828282;elbow=vertical;metaEdit=1;endSize=14;startSize=14;jumpStyle=arc;jumpSize=16;rounded=0;edgeStyle=orthogonalEdgeStyle;exitX=1;exitY=0.5;exitDx=0;exitDy=0;exitPerimeter=0;entryX=0;entryY=0.5;entryDx=0;entryDy=0;entryPerimeter=0;" parent="1" source="-rCLtENTZyw--RfLadG2-7" target="-rCLtENTZyw--RfLadG2-20" edge="1">
            <mxGeometry width="240" relative="1" as="geometry">
              <mxPoint x="-1230" y="1680" as="sourcePoint" />
              <mxPoint x="-770" y="1648" as="targetPoint" />
            </mxGeometry>
          </mxCell>
        </object>
        <object placeholders="1" c4Type="Relationship" c4Technology="TCP/IP-OLE" c4Description="Информация о принятии денежных средств" label="&lt;div style=&quot;text-align: left&quot;&gt;&lt;div style=&quot;text-align: center&quot;&gt;&lt;b&gt;%c4Description%&lt;/b&gt;&lt;/div&gt;&lt;div style=&quot;text-align: center&quot;&gt;[%c4Technology%]&lt;/div&gt;&lt;/div&gt;" id="09KiZqYfXbnlfeXMHTuH-17">
          <mxCell style="endArrow=blockThin;html=1;fontSize=10;fontColor=#404040;strokeWidth=1;endFill=1;strokeColor=#828282;elbow=vertical;metaEdit=1;endSize=14;startSize=14;jumpStyle=arc;jumpSize=16;rounded=0;edgeStyle=orthogonalEdgeStyle;exitX=0;exitY=0.5;exitDx=0;exitDy=0;exitPerimeter=0;entryX=1;entryY=0.25;entryDx=0;entryDy=0;entryPerimeter=0;startArrow=none;startFill=0;" parent="1" source="-rCLtENTZyw--RfLadG2-21" target="-rCLtENTZyw--RfLadG2-20" edge="1">
            <mxGeometry x="0.1771" width="240" relative="1" as="geometry">
              <mxPoint x="-530" y="1493" as="sourcePoint" />
              <mxPoint x="-530" y="1618" as="targetPoint" />
              <Array as="points">
                <mxPoint x="-230" y="1970" />
                <mxPoint x="-230" y="1453" />
              </Array>
              <mxPoint as="offset" />
            </mxGeometry>
          </mxCell>
        </object>
        <object placeholders="1" c4Type="Relationship" c4Description="Принятие оплаты" label="&lt;div style=&quot;text-align: left&quot;&gt;&lt;div style=&quot;text-align: center&quot;&gt;&lt;b&gt;%c4Description%&lt;/b&gt;&lt;/div&gt;" id="09KiZqYfXbnlfeXMHTuH-18">
          <mxCell style="endArrow=blockThin;html=1;fontSize=10;fontColor=#404040;strokeWidth=1;endFill=1;strokeColor=#828282;elbow=vertical;metaEdit=1;endSize=14;startSize=14;jumpStyle=arc;jumpSize=16;rounded=0;edgeStyle=orthogonalEdgeStyle;exitX=0;exitY=0.75;exitDx=0;exitDy=0;exitPerimeter=0;entryX=1;entryY=0.5;entryDx=0;entryDy=0;entryPerimeter=0;" parent="1" source="-rCLtENTZyw--RfLadG2-8" target="-rCLtENTZyw--RfLadG2-21" edge="1">
            <mxGeometry width="240" relative="1" as="geometry">
              <mxPoint x="-894" y="2122" as="sourcePoint" />
              <mxPoint x="-434" y="2090" as="targetPoint" />
              <Array as="points">
                <mxPoint x="280" y="1832" />
                <mxPoint x="280" y="1970" />
              </Array>
              <mxPoint as="offset" />
            </mxGeometry>
          </mxCell>
        </object>
        <object placeholders="1" c4Type="Relationship" c4Description="Запись пациента к специалисту" label="&lt;div style=&quot;text-align: left&quot;&gt;&lt;div style=&quot;text-align: center&quot;&gt;&lt;b&gt;%c4Description%&lt;/b&gt;&lt;/div&gt;" id="09KiZqYfXbnlfeXMHTuH-19">
          <mxCell style="endArrow=blockThin;html=1;fontSize=10;fontColor=#404040;strokeWidth=1;endFill=1;strokeColor=#828282;elbow=vertical;metaEdit=1;endSize=14;startSize=14;jumpStyle=arc;jumpSize=16;rounded=0;edgeStyle=orthogonalEdgeStyle;exitX=1;exitY=0.5;exitDx=0;exitDy=0;exitPerimeter=0;entryX=0;entryY=0.5;entryDx=0;entryDy=0;entryPerimeter=0;" parent="1" source="-rCLtENTZyw--RfLadG2-6" target="09KiZqYfXbnlfeXMHTuH-5" edge="1">
            <mxGeometry width="240" relative="1" as="geometry">
              <mxPoint x="-1090" y="1460" as="sourcePoint" />
              <mxPoint x="-720" y="880" as="targetPoint" />
            </mxGeometry>
          </mxCell>
        </object>
        <object placeholders="1" c4Type="Relationship" c4Description="Регистрация файла с данными пациента" label="&lt;div style=&quot;text-align: left&quot;&gt;&lt;div style=&quot;text-align: center&quot;&gt;&lt;b&gt;%c4Description%&lt;/b&gt;&lt;/div&gt;" id="09KiZqYfXbnlfeXMHTuH-20">
          <mxCell style="endArrow=blockThin;html=1;fontSize=10;fontColor=#404040;strokeWidth=1;endFill=1;strokeColor=#828282;elbow=vertical;metaEdit=1;endSize=14;startSize=14;jumpStyle=arc;jumpSize=16;rounded=0;edgeStyle=orthogonalEdgeStyle;exitX=0.5;exitY=1;exitDx=0;exitDy=0;exitPerimeter=0;entryX=0;entryY=0.25;entryDx=0;entryDy=0;entryPerimeter=0;" parent="1" source="-rCLtENTZyw--RfLadG2-6" target="09KiZqYfXbnlfeXMHTuH-8" edge="1">
            <mxGeometry width="240" relative="1" as="geometry">
              <mxPoint x="-1080" y="810" as="sourcePoint" />
              <mxPoint x="-670" y="820" as="targetPoint" />
              <Array as="points">
                <mxPoint x="-1190" y="1150" />
              </Array>
            </mxGeometry>
          </mxCell>
        </object>
        <object placeholders="1" c4Type="Relationship" c4Description="Регистрация пациента в системе" label="&lt;div style=&quot;text-align: left&quot;&gt;&lt;div style=&quot;text-align: center&quot;&gt;&lt;b&gt;%c4Description%&lt;/b&gt;&lt;/div&gt;" id="09KiZqYfXbnlfeXMHTuH-21">
          <mxCell style="endArrow=blockThin;html=1;fontSize=10;fontColor=#404040;strokeWidth=1;endFill=1;strokeColor=#828282;elbow=vertical;metaEdit=1;endSize=14;startSize=14;jumpStyle=arc;jumpSize=16;rounded=0;edgeStyle=orthogonalEdgeStyle;exitX=1;exitY=0.75;exitDx=0;exitDy=0;exitPerimeter=0;entryX=0;entryY=0.5;entryDx=0;entryDy=0;entryPerimeter=0;" parent="1" source="-rCLtENTZyw--RfLadG2-6" target="09KiZqYfXbnlfeXMHTuH-4" edge="1">
            <mxGeometry x="-0.0549" y="-20" width="240" relative="1" as="geometry">
              <mxPoint x="-1080" y="855" as="sourcePoint" />
              <mxPoint x="-800" y="1000" as="targetPoint" />
              <Array as="points">
                <mxPoint x="-960" y="845" />
                <mxPoint x="-960" y="1020" />
              </Array>
              <mxPoint as="offset" />
            </mxGeometry>
          </mxCell>
        </object>
        <object placeholders="1" c4Name="Doctor" c4Type="Person" c4Description="Специалист-медик" label="&lt;font style=&quot;font-size: 16px&quot;&gt;&lt;b&gt;%c4Name%&lt;/b&gt;&lt;/font&gt;&lt;div&gt;[%c4Type%]&lt;/div&gt;&lt;br&gt;&lt;div&gt;&lt;font style=&quot;font-size: 11px&quot;&gt;&lt;font color=&quot;#cccccc&quot;&gt;%c4Description%&lt;/font&gt;&lt;/div&gt;" id="09KiZqYfXbnlfeXMHTuH-22">
          <mxCell style="html=1;fontSize=11;dashed=0;whiteSpace=wrap;fillColor=#083F75;strokeColor=#06315C;fontColor=#ffffff;shape=mxgraph.c4.person2;align=center;metaEdit=1;points=[[0.5,0,0],[1,0.5,0],[1,0.75,0],[0.75,1,0],[0.5,1,0],[0.25,1,0],[0,0.75,0],[0,0.5,0]];resizable=0;" parent="1" vertex="1">
            <mxGeometry x="-670" y="340" width="200" height="180" as="geometry" />
          </mxCell>
        </object>
        <object placeholders="1" c4Type="Relationship" c4Description="Просмотр и редактирование своего журнала" label="&lt;div style=&quot;text-align: left&quot;&gt;&lt;div style=&quot;text-align: center&quot;&gt;&lt;b&gt;%c4Description%&lt;/b&gt;&lt;/div&gt;" id="09KiZqYfXbnlfeXMHTuH-23">
          <mxCell style="endArrow=blockThin;html=1;fontSize=10;fontColor=#404040;strokeWidth=1;endFill=1;strokeColor=#828282;elbow=vertical;metaEdit=1;endSize=14;startSize=14;jumpStyle=arc;jumpSize=16;rounded=0;edgeStyle=orthogonalEdgeStyle;exitX=0.5;exitY=1;exitDx=0;exitDy=0;exitPerimeter=0;entryX=0.5;entryY=0;entryDx=0;entryDy=0;entryPerimeter=0;" parent="1" source="09KiZqYfXbnlfeXMHTuH-22" target="09KiZqYfXbnlfeXMHTuH-5" edge="1">
            <mxGeometry width="240" relative="1" as="geometry">
              <mxPoint x="-1080" y="810" as="sourcePoint" />
              <mxPoint x="-670" y="820" as="targetPoint" />
            </mxGeometry>
          </mxCell>
        </object>
        <object placeholders="1" c4Type="Relationship" c4Description="Оплата за медицинские услуги" label="&lt;div style=&quot;text-align: left&quot;&gt;&lt;div style=&quot;text-align: center&quot;&gt;&lt;b&gt;%c4Description%&lt;/b&gt;&lt;/div&gt;" id="09KiZqYfXbnlfeXMHTuH-24">
          <mxCell style="endArrow=blockThin;html=1;fontSize=10;fontColor=#404040;strokeWidth=1;endFill=1;strokeColor=#828282;elbow=vertical;metaEdit=1;endSize=14;startSize=14;jumpStyle=arc;jumpSize=16;rounded=0;edgeStyle=orthogonalEdgeStyle;exitX=0.5;exitY=1;exitDx=0;exitDy=0;exitPerimeter=0;entryX=0.5;entryY=0;entryDx=0;entryDy=0;entryPerimeter=0;" parent="1" source="-rCLtENTZyw--RfLadG2-9" target="-rCLtENTZyw--RfLadG2-8" edge="1">
            <mxGeometry width="240" relative="1" as="geometry">
              <mxPoint x="360" y="1842" as="sourcePoint" />
              <mxPoint x="450" y="1700" as="targetPoint" />
              <Array as="points">
                <mxPoint x="450" y="1580" />
                <mxPoint x="450" y="1580" />
              </Array>
              <mxPoint as="offset" />
            </mxGeometry>
          </mxCell>
        </object>
        <object placeholders="1" c4Name="Laboratory" c4Type="Software System" c4Description="Медицинская лаборатория" label="&lt;font style=&quot;font-size: 16px&quot;&gt;&lt;b&gt;%c4Name%&lt;/b&gt;&lt;/font&gt;&lt;div&gt;[%c4Type%]&lt;/div&gt;&lt;br&gt;&lt;div&gt;&lt;font style=&quot;font-size: 11px&quot;&gt;&lt;font color=&quot;#cccccc&quot;&gt;%c4Description%&lt;/font&gt;&lt;/div&gt;" id="09KiZqYfXbnlfeXMHTuH-25">
          <mxCell style="rounded=1;whiteSpace=wrap;html=1;labelBackgroundColor=none;fillColor=#8C8496;fontColor=#ffffff;align=center;arcSize=10;strokeColor=#736782;metaEdit=1;resizable=0;points=[[0.25,0,0],[0.5,0,0],[0.75,0,0],[1,0.25,0],[1,0.5,0],[1,0.75,0],[0.75,1,0],[0.5,1,0],[0.25,1,0],[0,0.75,0],[0,0.5,0],[0,0.25,0]];" parent="1" vertex="1">
            <mxGeometry x="-350" y="430" width="240" height="120" as="geometry" />
          </mxCell>
        </object>
        <object placeholders="1" c4Name="Laboratory Registry" c4Type="Folder" c4Application="Папка" label="&lt;font style=&quot;font-size: 16px&quot;&gt;&lt;b&gt;&lt;div style=&quot;text-align: left&quot;&gt;%c4Name%&lt;/div&gt;&lt;/b&gt;&lt;/font&gt;&lt;div style=&quot;text-align: left&quot;&gt;[%c4Application%]&lt;/div&gt;" id="09KiZqYfXbnlfeXMHTuH-26">
          <mxCell style="rounded=1;fontSize=11;whiteSpace=wrap;html=1;dashed=1;arcSize=20;fillColor=none;strokeColor=#666666;fontColor=#333333;labelBackgroundColor=none;align=left;verticalAlign=bottom;labelBorderColor=none;spacingTop=0;spacing=10;dashPattern=8 4;metaEdit=1;rotatable=0;perimeter=rectanglePerimeter;noLabel=0;labelPadding=0;allowArrows=0;connectable=0;expand=0;recursiveResize=0;editable=1;pointerEvents=0;absoluteArcSize=1;points=[[0.25,0,0],[0.5,0,0],[0.75,0,0],[1,0.25,0],[1,0.5,0],[1,0.75,0],[0.75,1,0],[0.5,1,0],[0.25,1,0],[0,0.75,0],[0,0.5,0],[0,0.25,0]];" parent="1" vertex="1">
            <mxGeometry x="-280" y="700" width="380" height="660" as="geometry" />
          </mxCell>
        </object>
        <object placeholders="1" c4Name="RegistryByDate" c4Type="Excel file" c4Description="Реестр анализов за день" label="&lt;font style=&quot;font-size: 16px&quot;&gt;&lt;b&gt;%c4Name%&lt;/b&gt;&lt;/font&gt;&lt;div&gt;[%c4Type%]&lt;/div&gt;&lt;br&gt;&lt;div&gt;&lt;font style=&quot;font-size: 11px&quot;&gt;&lt;font color=&quot;#cccccc&quot;&gt;%c4Description%&lt;/font&gt;&lt;/div&gt;" id="09KiZqYfXbnlfeXMHTuH-27">
          <mxCell style="rounded=1;whiteSpace=wrap;html=1;labelBackgroundColor=none;fillColor=#1061B0;fontColor=#ffffff;align=center;arcSize=10;strokeColor=#0D5091;metaEdit=1;resizable=0;points=[[0.25,0,0],[0.5,0,0],[0.75,0,0],[1,0.25,0],[1,0.5,0],[1,0.75,0],[0.75,1,0],[0.5,1,0],[0.25,1,0],[0,0.75,0],[0,0.5,0],[0,0.25,0]];" parent="1" vertex="1">
            <mxGeometry x="-260" y="720" width="240" height="120" as="geometry" />
          </mxCell>
        </object>
        <object placeholders="1" c4Name="RegistryByDate" c4Type="Excel file" c4Description="Реестр анализов за день" label="&lt;font style=&quot;font-size: 16px&quot;&gt;&lt;b&gt;%c4Name%&lt;/b&gt;&lt;/font&gt;&lt;div&gt;[%c4Type%]&lt;/div&gt;&lt;br&gt;&lt;div&gt;&lt;font style=&quot;font-size: 11px&quot;&gt;&lt;font color=&quot;#cccccc&quot;&gt;%c4Description%&lt;/font&gt;&lt;/div&gt;" id="09KiZqYfXbnlfeXMHTuH-28">
          <mxCell style="rounded=1;whiteSpace=wrap;html=1;labelBackgroundColor=none;fillColor=#1061B0;fontColor=#ffffff;align=center;arcSize=10;strokeColor=#0D5091;metaEdit=1;resizable=0;points=[[0.25,0,0],[0.5,0,0],[0.75,0,0],[1,0.25,0],[1,0.5,0],[1,0.75,0],[0.75,1,0],[0.5,1,0],[0.25,1,0],[0,0.75,0],[0,0.5,0],[0,0.25,0]];" parent="1" vertex="1">
            <mxGeometry x="-250" y="730" width="240" height="120" as="geometry" />
          </mxCell>
        </object>
        <object placeholders="1" c4Name="RegistryByDate" c4Type="Excel file" c4Description="Реестр анализов за день" label="&lt;font style=&quot;font-size: 16px&quot;&gt;&lt;b&gt;%c4Name%&lt;/b&gt;&lt;/font&gt;&lt;div&gt;[%c4Type%]&lt;/div&gt;&lt;br&gt;&lt;div&gt;&lt;font style=&quot;font-size: 11px&quot;&gt;&lt;font color=&quot;#cccccc&quot;&gt;%c4Description%&lt;/font&gt;&lt;/div&gt;" id="09KiZqYfXbnlfeXMHTuH-29">
          <mxCell style="rounded=1;whiteSpace=wrap;html=1;labelBackgroundColor=none;fillColor=#1061B0;fontColor=#ffffff;align=center;arcSize=10;strokeColor=#0D5091;metaEdit=1;resizable=0;points=[[0.25,0,0],[0.5,0,0],[0.75,0,0],[1,0.25,0],[1,0.5,0],[1,0.75,0],[0.75,1,0],[0.5,1,0],[0.25,1,0],[0,0.75,0],[0,0.5,0],[0,0.25,0]];" parent="1" vertex="1">
            <mxGeometry x="-240" y="740" width="240" height="120" as="geometry" />
          </mxCell>
        </object>
        <object placeholders="1" c4Name="RegistryByDate" c4Type="Excel file" c4Description="Реестр анализов за день" label="&lt;font style=&quot;font-size: 16px&quot;&gt;&lt;b&gt;%c4Name%&lt;/b&gt;&lt;/font&gt;&lt;div&gt;[%c4Type%]&lt;/div&gt;&lt;br&gt;&lt;div&gt;&lt;font style=&quot;font-size: 11px&quot;&gt;&lt;font color=&quot;#cccccc&quot;&gt;%c4Description%&lt;/font&gt;&lt;/div&gt;" id="09KiZqYfXbnlfeXMHTuH-30">
          <mxCell style="rounded=1;whiteSpace=wrap;html=1;labelBackgroundColor=none;fillColor=#1061B0;fontColor=#ffffff;align=center;arcSize=10;strokeColor=#0D5091;metaEdit=1;resizable=0;points=[[0.25,0,0],[0.5,0,0],[0.75,0,0],[1,0.25,0],[1,0.5,0],[1,0.75,0],[0.75,1,0],[0.5,1,0],[0.25,1,0],[0,0.75,0],[0,0.5,0],[0,0.25,0]];" parent="1" vertex="1">
            <mxGeometry x="-230" y="750" width="240" height="120" as="geometry" />
          </mxCell>
        </object>
      </root>
    </mxGraphModel>
  </diagram>
</mxfile>
